<mxfile host="app.diagrams.net" modified="2023-05-23T19:07:41.323Z" agent="Mozilla/5.0 (Windows NT 10.0; Win64; x64) AppleWebKit/537.36 (KHTML, like Gecko) Chrome/113.0.0.0 Safari/537.36" etag="EXH4hPD4HaegPUN__oNt" version="21.3.2" type="device">
  <diagram name="Pagina-1" id="All7uzV2OwWNBoKM_PWa">
    <mxGraphModel dx="4308" dy="2100" grid="0" gridSize="10" guides="1" tooltips="1" connect="1" arrows="1" fold="1" page="1" pageScale="1" pageWidth="1654" pageHeight="1169" background="#ffffff" math="0" shadow="0">
      <root>
        <mxCell id="0" />
        <mxCell id="1" parent="0" />
        <mxCell id="IGpdcPXpx3QODBAOmaDT-8" value="SCUOLA" style="rounded=1;whiteSpace=wrap;html=1;shadow=0;glass=0;points=[[0,0,0,0,0],[0,0.25,0,0,0],[0,0.5,0,0,0],[0,0.75,0,0,0],[0,1,0,0,0],[0.25,0,0,0,0],[0.25,1,0,0,0],[0.5,0,0,0,0],[0.5,1,0,0,0],[0.75,0,0,0,0],[0.75,1,0,0,0],[1,0,0,0,0],[1,0.25,0,0,0],[1,0.5,0,0,0],[1,0.75,0,0,0],[1,1,0,0,0]];fontSize=15;labelBackgroundColor=none;fillColor=#FAE5C7;strokeColor=#0F8B8D;fontColor=#143642;" parent="1" vertex="1">
          <mxGeometry x="1597.25" y="896" width="182.5" height="40" as="geometry" />
        </mxCell>
        <mxCell id="IGpdcPXpx3QODBAOmaDT-10" value="Partecipa" style="rhombus;whiteSpace=wrap;html=1;rounded=1;shadow=0;glass=0;fontSize=15;align=center;verticalAlign=middle;labelBackgroundColor=none;fillColor=#FAE5C7;strokeColor=#0F8B8D;fontColor=#143642;" parent="1" vertex="1">
          <mxGeometry x="987" y="886" width="111.5" height="60" as="geometry" />
        </mxCell>
        <mxCell id="IGpdcPXpx3QODBAOmaDT-12" value="PERSONA" style="whiteSpace=wrap;html=1;rounded=1;shadow=0;glass=0;fontSize=15;points=[[0,0,0,0,0],[0,0.25,0,0,0],[0,0.5,0,0,0],[0,0.75,0,0,0],[0,1,0,0,0],[0.25,0,0,0,0],[0.25,1,0,0,0],[0.5,0,0,0,0],[0.5,1,0,0,0],[0.75,0,0,0,0],[0.75,1,0,0,0],[1,0,0,0,0],[1,0.25,0,0,0],[1,0.5,0,0,0],[1,0.75,0,0,0],[1,1,0,0,0]];labelBackgroundColor=none;fillColor=#FAE5C7;strokeColor=#0F8B8D;fontColor=#143642;" parent="1" vertex="1">
          <mxGeometry x="803.0000000000002" y="896" width="100" height="40" as="geometry" />
        </mxCell>
        <mxCell id="IGpdcPXpx3QODBAOmaDT-101" value="Possiede" style="rhombus;whiteSpace=wrap;html=1;fontFamily=Helvetica;fontSize=15;labelBackgroundColor=none;rounded=1;fillColor=#FAE5C7;strokeColor=#0F8B8D;fontColor=#143642;" parent="1" vertex="1">
          <mxGeometry x="1689.75" y="744" width="87.5" height="70" as="geometry" />
        </mxCell>
        <mxCell id="2ZxViYWchOxOmelXp1Hh-58" style="edgeStyle=none;shape=connector;rounded=1;orthogonalLoop=1;jettySize=auto;html=1;exitX=0;exitY=0.5;exitDx=0;exitDy=0;exitPerimeter=0;entryX=1;entryY=0.5;entryDx=0;entryDy=0;labelBackgroundColor=none;fontFamily=Helvetica;fontSize=15;fontColor=default;endArrow=none;endFill=0;strokeColor=#A8201A;" parent="1" source="IGpdcPXpx3QODBAOmaDT-103" target="9Mot5vRxFBjQDdBxqjVs-2" edge="1">
          <mxGeometry relative="1" as="geometry">
            <mxPoint x="2500.86" y="1320.96" as="targetPoint" />
          </mxGeometry>
        </mxCell>
        <mxCell id="IGpdcPXpx3QODBAOmaDT-103" value="ORTO" style="rounded=1;whiteSpace=wrap;html=1;shadow=0;glass=0;points=[[0,0,0,0,0],[0,0.25,0,0,0],[0,0.5,0,0,0],[0,0.75,0,0,0],[0,1,0,0,0],[0.25,0,0,0,0],[0.25,1,0,0,0],[0.5,0,0,0,0],[0.5,1,0,0,0],[0.75,0,0,0,0],[0.75,1,0,0,0],[1,0,0,0,0],[1,0.25,0,0,0],[1,0.5,0,0,0],[1,0.75,0,0,0],[1,1,0,0,0]];fontSize=15;labelBackgroundColor=none;fillColor=#FAE5C7;strokeColor=#0F8B8D;fontColor=#143642;" parent="1" vertex="1">
          <mxGeometry x="1598.75" y="664" width="181" height="40" as="geometry" />
        </mxCell>
        <mxCell id="IGpdcPXpx3QODBAOmaDT-109" style="edgeStyle=none;shape=connector;rounded=1;orthogonalLoop=1;jettySize=auto;html=1;entryX=0.75;entryY=1;entryDx=0;entryDy=0;entryPerimeter=0;labelBackgroundColor=none;fontFamily=Helvetica;fontSize=15;fontColor=default;endArrow=none;endFill=0;exitX=0.5;exitY=1;exitDx=0;exitDy=0;strokeColor=#A8201A;" parent="1" source="2ZxViYWchOxOmelXp1Hh-26" target="IGpdcPXpx3QODBAOmaDT-8" edge="1">
          <mxGeometry relative="1" as="geometry" />
        </mxCell>
        <mxCell id="IGpdcPXpx3QODBAOmaDT-114" style="edgeStyle=none;shape=connector;rounded=1;orthogonalLoop=1;jettySize=auto;html=1;labelBackgroundColor=none;fontFamily=Helvetica;fontSize=15;fontColor=default;endArrow=oval;endFill=0;strokeColor=#A8201A;entryX=0.617;entryY=-0.25;entryDx=0;entryDy=0;entryPerimeter=0;exitX=1;exitY=0;exitDx=0;exitDy=0;exitPerimeter=0;" parent="1" source="IGpdcPXpx3QODBAOmaDT-111" target="IGpdcPXpx3QODBAOmaDT-113" edge="1">
          <mxGeometry relative="1" as="geometry">
            <mxPoint x="1658" y="1257" as="sourcePoint" />
            <mxPoint x="1755" y="1285" as="targetPoint" />
            <Array as="points" />
          </mxGeometry>
        </mxCell>
        <mxCell id="IGpdcPXpx3QODBAOmaDT-118" style="edgeStyle=none;shape=connector;rounded=1;orthogonalLoop=1;jettySize=auto;html=1;labelBackgroundColor=none;fontFamily=Helvetica;fontSize=15;fontColor=default;endArrow=oval;endFill=0;strokeColor=#A8201A;exitX=0.75;exitY=1;exitDx=0;exitDy=0;exitPerimeter=0;entryX=0.614;entryY=-0.15;entryDx=0;entryDy=0;entryPerimeter=0;" parent="1" source="IGpdcPXpx3QODBAOmaDT-111" target="IGpdcPXpx3QODBAOmaDT-115" edge="1">
          <mxGeometry relative="1" as="geometry">
            <mxPoint x="1726.5" y="1201" as="sourcePoint" />
            <mxPoint x="1792" y="1349" as="targetPoint" />
            <Array as="points" />
          </mxGeometry>
        </mxCell>
        <mxCell id="IGpdcPXpx3QODBAOmaDT-120" style="edgeStyle=none;shape=connector;rounded=1;orthogonalLoop=1;jettySize=auto;html=1;exitX=0.25;exitY=1;exitDx=0;exitDy=0;exitPerimeter=0;labelBackgroundColor=none;fontFamily=Helvetica;fontSize=15;fontColor=default;endArrow=oval;endFill=0;strokeColor=#A8201A;entryX=0.517;entryY=-0.204;entryDx=0;entryDy=0;entryPerimeter=0;" parent="1" source="IGpdcPXpx3QODBAOmaDT-111" target="IGpdcPXpx3QODBAOmaDT-116" edge="1">
          <mxGeometry relative="1" as="geometry">
            <mxPoint x="1748.9" y="1202.6" as="sourcePoint" />
            <mxPoint x="1718" y="1299" as="targetPoint" />
          </mxGeometry>
        </mxCell>
        <mxCell id="IGpdcPXpx3QODBAOmaDT-111" value="CLASSE" style="rounded=1;whiteSpace=wrap;html=1;shadow=0;glass=0;points=[[0,0,0,0,0],[0,0.25,0,0,0],[0,0.5,0,0,0],[0,0.75,0,0,0],[0,1,0,0,0],[0.25,0,0,0,0],[0.25,1,0,0,0],[0.5,0,0,0,0],[0.5,1,0,0,0],[0.75,0,0,0,0],[0.75,1,0,0,0],[1,0,0,0,0],[1,0.25,0,0,0],[1,0.5,0,0,0],[1,0.75,0,0,0],[1,1,0,0,0]];fontSize=15;labelBackgroundColor=none;fillColor=#FAE5C7;strokeColor=#0F8B8D;fontColor=#143642;" parent="1" vertex="1">
          <mxGeometry x="1689.75" y="1211" width="100" height="40" as="geometry" />
        </mxCell>
        <mxCell id="IGpdcPXpx3QODBAOmaDT-113" value="Nome" style="text;html=1;align=center;verticalAlign=middle;resizable=0;points=[];autosize=1;strokeColor=none;fillColor=none;fontSize=15;fontFamily=Helvetica;labelBackgroundColor=none;rounded=1;fontColor=#143642;arcSize=50;" parent="1" vertex="1">
          <mxGeometry x="1844" y="1176" width="60" height="30" as="geometry" />
        </mxCell>
        <mxCell id="IGpdcPXpx3QODBAOmaDT-115" value="Ordine" style="text;html=1;align=center;verticalAlign=middle;resizable=0;points=[];autosize=1;strokeColor=none;fillColor=none;fontSize=15;fontFamily=Helvetica;labelBackgroundColor=none;rounded=1;fontColor=#143642;arcSize=50;" parent="1" vertex="1">
          <mxGeometry x="1725" y="1296" width="70" height="30" as="geometry" />
        </mxCell>
        <mxCell id="IGpdcPXpx3QODBAOmaDT-116" value="Tipo" style="text;html=1;align=center;verticalAlign=middle;resizable=0;points=[];autosize=1;strokeColor=none;fillColor=none;fontSize=15;fontFamily=Helvetica;labelBackgroundColor=none;rounded=1;fontColor=#143642;" parent="1" vertex="1">
          <mxGeometry x="1689.75" y="1281" width="50" height="30" as="geometry" />
        </mxCell>
        <mxCell id="9Mot5vRxFBjQDdBxqjVs-2" value="Contiene" style="rhombus;whiteSpace=wrap;html=1;fontSize=15;labelBackgroundColor=none;rounded=1;fillColor=#FAE5C7;strokeColor=#0F8B8D;fontColor=#143642;" parent="1" vertex="1">
          <mxGeometry x="1365" y="654" width="90" height="60" as="geometry" />
        </mxCell>
        <mxCell id="ZCTQWjX--OK0ONbOPQjy-1" style="edgeStyle=orthogonalEdgeStyle;rounded=1;orthogonalLoop=1;jettySize=auto;html=1;entryX=1;entryY=0.5;entryDx=0;entryDy=0;entryPerimeter=0;fontFamily=Helvetica;fontSize=15;fontColor=default;endArrow=none;endFill=0;labelBackgroundColor=none;exitX=0.5;exitY=1;exitDx=0;exitDy=0;strokeColor=#A8201A;" parent="1" source="9Mot5vRxFBjQDdBxqjVs-57" target="9Mot5vRxFBjQDdBxqjVs-58" edge="1">
          <mxGeometry relative="1" as="geometry">
            <mxPoint x="1247" y="508" as="sourcePoint" />
            <Array as="points">
              <mxPoint x="749" y="706" />
            </Array>
          </mxGeometry>
        </mxCell>
        <mxCell id="9Mot5vRxFBjQDdBxqjVs-57" value="Effettuata" style="rhombus;whiteSpace=wrap;html=1;fontSize=15;labelBackgroundColor=none;rounded=1;fillColor=#FAE5C7;strokeColor=#0F8B8D;fontColor=#143642;" parent="1" vertex="1">
          <mxGeometry x="703.0000000000002" y="491.5" width="91.5" height="67" as="geometry" />
        </mxCell>
        <mxCell id="9Mot5vRxFBjQDdBxqjVs-127" style="edgeStyle=none;shape=connector;rounded=1;orthogonalLoop=1;jettySize=auto;html=1;entryX=0;entryY=0.5;entryDx=0;entryDy=0;labelBackgroundColor=none;fontFamily=Helvetica;fontSize=15;fontColor=default;endArrow=none;endFill=0;strokeColor=#A8201A;exitX=0.75;exitY=1;exitDx=0;exitDy=0;exitPerimeter=0;" parent="1" source="9Mot5vRxFBjQDdBxqjVs-58" target="9Mot5vRxFBjQDdBxqjVs-84" edge="1">
          <mxGeometry relative="1" as="geometry">
            <Array as="points">
              <mxPoint x="515" y="822" />
            </Array>
          </mxGeometry>
        </mxCell>
        <mxCell id="9Mot5vRxFBjQDdBxqjVs-58" value="RILEVAZIONE" style="whiteSpace=wrap;html=1;rounded=1;shadow=0;glass=0;fontSize=15;points=[[0,0,0,0,0],[0,0.25,0,0,0],[0,0.5,0,0,0],[0,0.75,0,0,0],[0,1,0,0,0],[0.25,0,0,0,0],[0.25,1,0,0,0],[0.5,0,0,0,0],[0.5,1,0,0,0],[0.75,0,0,0,0],[0.75,1,0,0,0],[1,0,0,0,0],[1,0.25,0,0,0],[1,0.5,0,0,0],[1,0.75,0,0,0],[1,1,0,0,0]];movable=1;resizable=1;rotatable=1;deletable=1;editable=1;locked=0;connectable=1;labelBackgroundColor=none;fillColor=#FAE5C7;strokeColor=#0F8B8D;fontColor=#143642;" parent="1" vertex="1">
          <mxGeometry x="424" y="686" width="121" height="40" as="geometry" />
        </mxCell>
        <mxCell id="9Mot5vRxFBjQDdBxqjVs-64" value="&lt;font style=&quot;font-size: 12px;&quot;&gt;Adatto: Sì o No&amp;nbsp;&lt;br&gt;&lt;br&gt;Ruolo:&amp;nbsp; Docente, Dirigente, ...&lt;br&gt;&lt;br&gt;Scopo:&amp;nbsp; Biomonitoraggio o Fitobonifica&lt;br&gt;&lt;br&gt;Tipo_substrato: Terriccio da rinvaso o Suolo pre-esistente&lt;br&gt;&lt;br&gt;Collocazione:&amp;nbsp; in Vaso o per Terra&lt;br&gt;&lt;br&gt;Tipo_Sensore: Scheda_Arduino o Sensore&lt;br&gt;&lt;br&gt;Tipo_Acquisizione:&amp;nbsp; Arduino o App&amp;nbsp;&lt;br&gt;&lt;br&gt;Ruolo: Finanziatore, Dirigente, Docente, Rilevatore Esterno&lt;br&gt;&lt;br&gt;TipoGruppo:&amp;nbsp; Pulito&amp;nbsp; o&amp;nbsp; Inquinato&lt;/font&gt;" style="rounded=1;whiteSpace=wrap;html=1;fontFamily=Helvetica;fontSize=11;labelBackgroundColor=none;fillColor=#FAE5C7;strokeColor=#0F8B8D;fontColor=#143642;" parent="1" vertex="1">
          <mxGeometry x="2796" y="89" width="394.38" height="281" as="geometry" />
        </mxCell>
        <mxCell id="9Mot5vRxFBjQDdBxqjVs-66" value="&lt;span style=&quot;font-size: 15px;&quot;&gt;Ph&lt;/span&gt;" style="text;html=1;align=center;verticalAlign=middle;resizable=0;points=[];autosize=1;strokeColor=none;fillColor=none;fontSize=15;fontFamily=Helvetica;labelBackgroundColor=none;rounded=1;fontColor=#143642;" parent="1" vertex="1">
          <mxGeometry x="712" y="738" width="40" height="30" as="geometry" />
        </mxCell>
        <mxCell id="9Mot5vRxFBjQDdBxqjVs-67" value="&lt;span style=&quot;font-size: 15px;&quot;&gt;Umidità&lt;/span&gt;" style="text;html=1;align=center;verticalAlign=middle;resizable=0;points=[];autosize=1;strokeColor=none;fillColor=none;fontSize=15;fontFamily=Helvetica;labelBackgroundColor=none;rounded=1;fontColor=#143642;" parent="1" vertex="1">
          <mxGeometry x="644" y="735" width="70" height="30" as="geometry" />
        </mxCell>
        <mxCell id="9Mot5vRxFBjQDdBxqjVs-78" value="Rappresentata" style="rhombus;whiteSpace=wrap;html=1;rounded=1;shadow=0;glass=0;fontSize=15;align=center;verticalAlign=middle;labelBackgroundColor=none;fillColor=#FAE5C7;strokeColor=#0F8B8D;fontColor=#143642;" parent="1" vertex="1">
          <mxGeometry x="773" y="1201" width="160" height="60" as="geometry" />
        </mxCell>
        <mxCell id="9Mot5vRxFBjQDdBxqjVs-94" style="edgeStyle=none;shape=connector;rounded=1;orthogonalLoop=1;jettySize=auto;html=1;exitX=0.698;exitY=0.142;exitDx=0;exitDy=0;labelBackgroundColor=none;fontFamily=Helvetica;fontSize=15;fontColor=default;endArrow=oval;endFill=0;strokeColor=#A8201A;exitPerimeter=0;entryX=0.447;entryY=1.226;entryDx=0;entryDy=0;entryPerimeter=0;" parent="1" source="9Mot5vRxFBjQDdBxqjVs-84" target="9Mot5vRxFBjQDdBxqjVs-66" edge="1">
          <mxGeometry relative="1" as="geometry">
            <mxPoint x="732.48" y="772.2400000000002" as="targetPoint" />
            <mxPoint x="485.0400090753028" y="302.54749659676145" as="sourcePoint" />
          </mxGeometry>
        </mxCell>
        <mxCell id="9Mot5vRxFBjQDdBxqjVs-95" style="edgeStyle=none;shape=connector;rounded=1;orthogonalLoop=1;jettySize=auto;html=1;labelBackgroundColor=none;fontFamily=Helvetica;fontSize=15;fontColor=default;endArrow=oval;endFill=0;strokeColor=#A8201A;exitX=0.5;exitY=0;exitDx=0;exitDy=0;entryX=0.487;entryY=1.108;entryDx=0;entryDy=0;entryPerimeter=0;" parent="1" source="9Mot5vRxFBjQDdBxqjVs-84" target="9Mot5vRxFBjQDdBxqjVs-67" edge="1">
          <mxGeometry relative="1" as="geometry">
            <mxPoint x="457" y="625" as="targetPoint" />
            <mxPoint x="447.5" y="354" as="sourcePoint" />
          </mxGeometry>
        </mxCell>
        <mxCell id="9Mot5vRxFBjQDdBxqjVs-96" style="edgeStyle=none;shape=connector;rounded=1;orthogonalLoop=1;jettySize=auto;html=1;exitX=0;exitY=0;exitDx=0;exitDy=0;labelBackgroundColor=none;fontFamily=Helvetica;fontSize=15;fontColor=default;endArrow=oval;endFill=0;strokeColor=#A8201A;entryX=0.533;entryY=1.118;entryDx=0;entryDy=0;entryPerimeter=0;" parent="1" source="9Mot5vRxFBjQDdBxqjVs-84" target="KA5vXZ2nPaFK-a-9JE_G-69" edge="1">
          <mxGeometry relative="1" as="geometry">
            <mxPoint x="421" y="708" as="targetPoint" />
            <mxPoint x="405.7399999999998" y="301.9499999999998" as="sourcePoint" />
          </mxGeometry>
        </mxCell>
        <mxCell id="9Mot5vRxFBjQDdBxqjVs-84" value="Parametri del suolo" style="ellipse;whiteSpace=wrap;html=1;fontFamily=Helvetica;fontSize=15;labelBackgroundColor=none;rounded=1;fillColor=#FAE5C7;strokeColor=#0F8B8D;fontColor=#143642;" parent="1" vertex="1">
          <mxGeometry x="611" y="797" width="130" height="50" as="geometry" />
        </mxCell>
        <mxCell id="9Mot5vRxFBjQDdBxqjVs-89" style="edgeStyle=none;shape=connector;rounded=1;orthogonalLoop=1;jettySize=auto;html=1;labelBackgroundColor=none;fontFamily=Helvetica;fontSize=15;fontColor=default;endArrow=none;endFill=0;strokeColor=#A8201A;entryX=0.5;entryY=1;entryDx=0;entryDy=0;entryPerimeter=0;" parent="1" source="9Mot5vRxFBjQDdBxqjVs-86" target="9Mot5vRxFBjQDdBxqjVs-58" edge="1">
          <mxGeometry relative="1" as="geometry">
            <mxPoint x="3283.1511725955206" y="1152.222187088274" as="sourcePoint" />
            <mxPoint x="466" y="417" as="targetPoint" />
          </mxGeometry>
        </mxCell>
        <mxCell id="9Mot5vRxFBjQDdBxqjVs-86" value="Responsabile" style="rhombus;whiteSpace=wrap;html=1;fontSize=15;labelBackgroundColor=none;rounded=1;fillColor=#FAE5C7;strokeColor=#0F8B8D;fontColor=#143642;" parent="1" vertex="1">
          <mxGeometry x="414.5" y="889" width="140" height="54" as="geometry" />
        </mxCell>
        <mxCell id="9Mot5vRxFBjQDdBxqjVs-103" value="SENSORE" style="whiteSpace=wrap;html=1;rounded=1;shadow=0;glass=0;fontSize=15;points=[[0,0,0,0,0],[0,0.25,0,0,0],[0,0.5,0,0,0],[0,0.75,0,0,0],[0,1,0,0,0],[0.25,0,0,0,0],[0.25,1,0,0,0],[0.5,0,0,0,0],[0.5,1,0,0,0],[0.75,0,0,0,0],[0.75,1,0,0,0],[1,0,0,0,0],[1,0.25,0,0,0],[1,0.5,0,0,0],[1,0.75,0,0,0],[1,1,0,0,0]];movable=1;resizable=1;rotatable=1;deletable=1;editable=1;locked=0;connectable=1;labelBackgroundColor=none;fillColor=#FAE5C7;strokeColor=#0F8B8D;fontColor=#143642;" parent="1" vertex="1">
          <mxGeometry x="434.5" y="484" width="100" height="40" as="geometry" />
        </mxCell>
        <mxCell id="9Mot5vRxFBjQDdBxqjVs-104" value="Rilevata" style="rhombus;whiteSpace=wrap;html=1;rounded=1;shadow=0;glass=0;fontSize=15;align=center;labelBackgroundColor=none;fillColor=#FAE5C7;strokeColor=#0F8B8D;fontColor=#143642;" parent="1" vertex="1">
          <mxGeometry x="434.5" y="577.5" width="100" height="82" as="geometry" />
        </mxCell>
        <mxCell id="2ZxViYWchOxOmelXp1Hh-9" value="Utilizza" style="rhombus;whiteSpace=wrap;html=1;fontFamily=Helvetica;fontSize=15;labelBackgroundColor=none;rounded=1;fillColor=#FAE5C7;strokeColor=#0F8B8D;fontColor=#143642;" parent="1" vertex="1">
          <mxGeometry x="1605" y="786" width="87.5" height="70" as="geometry" />
        </mxCell>
        <mxCell id="2ZxViYWchOxOmelXp1Hh-26" value="Afferisce" style="rhombus;whiteSpace=wrap;html=1;fontFamily=Helvetica;fontSize=15;align=center;verticalAlign=middle;labelBackgroundColor=none;rounded=1;fillColor=#FAE5C7;strokeColor=#0F8B8D;fontColor=#143642;" parent="1" vertex="1">
          <mxGeometry x="1673.5" y="1029" width="120" height="71" as="geometry" />
        </mxCell>
        <mxCell id="2ZxViYWchOxOmelXp1Hh-27" value="Iscritta" style="rhombus;whiteSpace=wrap;html=1;fontFamily=Helvetica;fontSize=15;align=center;verticalAlign=middle;labelBackgroundColor=none;rounded=1;fillColor=#FAE5C7;strokeColor=#0F8B8D;fontColor=#143642;" parent="1" vertex="1">
          <mxGeometry x="1380" y="891" width="140" height="50" as="geometry" />
        </mxCell>
        <mxCell id="2ZxViYWchOxOmelXp1Hh-42" value="SPECIE" style="rounded=1;whiteSpace=wrap;html=1;shadow=0;glass=0;points=[[0,0,0,0,0],[0,0.25,0,0,0],[0,0.5,0,0,0],[0,0.75,0,0,0],[0,1,0,0,0],[0.25,0,0,0,0],[0.25,1,0,0,0],[0.5,0,0,0,0],[0.5,1,0,0,0],[0.75,0,0,0,0],[0.75,1,0,0,0],[1,0,0,0,0],[1,0.25,0,0,0],[1,0.5,0,0,0],[1,0.75,0,0,0],[1,1,0,0,0]];fontSize=15;labelBackgroundColor=none;fillColor=#FAE5C7;strokeColor=#0F8B8D;fontColor=#143642;" parent="1" vertex="1">
          <mxGeometry x="1048.0000000000002" y="664" width="160" height="40" as="geometry" />
        </mxCell>
        <mxCell id="2ZxViYWchOxOmelXp1Hh-57" style="edgeStyle=none;shape=connector;rounded=1;orthogonalLoop=1;jettySize=auto;html=1;exitX=0.5;exitY=1;exitDx=0;exitDy=0;labelBackgroundColor=none;fontFamily=Helvetica;fontSize=15;fontColor=default;endArrow=oval;endFill=0;strokeColor=#A8201A;" parent="1" source="9Mot5vRxFBjQDdBxqjVs-104" target="9Mot5vRxFBjQDdBxqjVs-104" edge="1">
          <mxGeometry relative="1" as="geometry" />
        </mxCell>
        <mxCell id="2ZxViYWchOxOmelXp1Hh-59" value="GRUPPO" style="whiteSpace=wrap;html=1;rounded=1;shadow=0;glass=0;fontSize=15;points=[[0,0,0,0,0],[0,0.25,0,0,0],[0,0.5,0,0,0],[0,0.75,0,0,0],[0,1,0,0,0],[0.25,0,0,0,0],[0.25,1,0,0,0],[0.5,0,0,0,0],[0.5,1,0,0,0],[0.75,0,0,0,0],[0.75,1,0,0,0],[1,0,0,0,0],[1,0.25,0,0,0],[1,0.5,0,0,0],[1,0.75,0,0,0],[1,1,0,0,0]];movable=1;resizable=1;rotatable=1;deletable=1;editable=1;locked=0;connectable=1;labelBackgroundColor=none;fillColor=#FAE5C7;strokeColor=#0F8B8D;fontColor=#143642;" parent="1" vertex="1">
          <mxGeometry x="907" y="299" width="100" height="40" as="geometry" />
        </mxCell>
        <mxCell id="2ZxViYWchOxOmelXp1Hh-60" value="Contenuta" style="rhombus;whiteSpace=wrap;html=1;fontSize=15;labelBackgroundColor=none;rounded=1;fillColor=#FAE5C7;strokeColor=#0F8B8D;fontColor=#143642;" parent="1" vertex="1">
          <mxGeometry x="907.0000000000002" y="393" width="100" height="46.5" as="geometry" />
        </mxCell>
        <mxCell id="Dx_CMPOLSW68eJcPcujk-1" value="Appartiene" style="rhombus;whiteSpace=wrap;html=1;fontFamily=Helvetica;fontSize=15;align=center;verticalAlign=middle;labelBackgroundColor=none;rounded=1;fillColor=#FAE5C7;strokeColor=#0F8B8D;fontColor=#143642;" parent="1" vertex="1">
          <mxGeometry x="1151.5000000000002" y="1112" width="140" height="71" as="geometry" />
        </mxCell>
        <mxCell id="Dx_CMPOLSW68eJcPcujk-4" style="edgeStyle=orthogonalEdgeStyle;rounded=1;orthogonalLoop=1;jettySize=auto;html=1;exitX=0.5;exitY=1;exitDx=0;exitDy=0;labelBackgroundColor=none;strokeColor=#A8201A;fontColor=default;" parent="1" source="Dx_CMPOLSW68eJcPcujk-1" target="Dx_CMPOLSW68eJcPcujk-1" edge="1">
          <mxGeometry relative="1" as="geometry" />
        </mxCell>
        <mxCell id="Dx_CMPOLSW68eJcPcujk-12" value="REPLICA&amp;nbsp; /&amp;nbsp; PIANTA" style="rounded=1;whiteSpace=wrap;html=1;shadow=0;glass=0;points=[[0,0,0,0,0],[0,0.25,0,0,0],[0,0.5,0,0,0],[0,0.75,0,0,0],[0,1,0,0,0],[0.25,0,0,0,0],[0.25,1,0,0,0],[0.5,0,0,0,0],[0.5,1,0,0,0],[0.75,0,0,0,0],[0.75,1,0,0,0],[1,0,0,0,0],[1,0.25,0,0,0],[1,0.5,0,0,0],[1,0.75,0,0,0],[1,1,0,0,0]];fontSize=15;labelBackgroundColor=none;fillColor=#FAE5C7;strokeColor=#0F8B8D;fontColor=#143642;" parent="1" vertex="1">
          <mxGeometry x="877.0000000000002" y="505" width="160" height="40" as="geometry" />
        </mxCell>
        <mxCell id="Dx_CMPOLSW68eJcPcujk-19" value="Include" style="rhombus;whiteSpace=wrap;html=1;fontSize=15;labelBackgroundColor=none;rounded=1;fillColor=#FAE5C7;strokeColor=#0F8B8D;fontColor=#143642;" parent="1" vertex="1">
          <mxGeometry x="911.2500000000002" y="585" width="91.5" height="67" as="geometry" />
        </mxCell>
        <mxCell id="Dx_CMPOLSW68eJcPcujk-28" value="Ospita" style="rhombus;whiteSpace=wrap;html=1;fontSize=15;labelBackgroundColor=none;rounded=1;fillColor=#FAE5C7;strokeColor=#0F8B8D;fontColor=#143642;" parent="1" vertex="1">
          <mxGeometry x="1401" y="495" width="90" height="60" as="geometry" />
        </mxCell>
        <mxCell id="Dx_CMPOLSW68eJcPcujk-40" value="Coltiva*" style="rhombus;whiteSpace=wrap;html=1;fontSize=15;labelBackgroundColor=none;rounded=1;fillColor=#FAE5C7;strokeColor=#0F8B8D;fontColor=#143642;" parent="1" vertex="1">
          <mxGeometry x="1675" y="370" width="90.25" height="60" as="geometry" />
        </mxCell>
        <mxCell id="77c9ratOZqriTQwKT7vz-7" value="*Classe che l&#39;ha messa a dimora" style="shape=card;whiteSpace=wrap;html=1;size=31;rounded=1;labelBackgroundColor=none;fillColor=#FAE5C7;strokeColor=#0F8B8D;fontColor=#143642;" parent="1" vertex="1">
          <mxGeometry x="1783.5" y="339" width="242" height="48" as="geometry" />
        </mxCell>
        <mxCell id="77c9ratOZqriTQwKT7vz-8" style="edgeStyle=orthogonalEdgeStyle;rounded=1;orthogonalLoop=1;jettySize=auto;html=1;exitX=0.5;exitY=1;exitDx=0;exitDy=0;exitPerimeter=0;labelBackgroundColor=none;strokeColor=#A8201A;fontColor=default;" parent="1" source="77c9ratOZqriTQwKT7vz-7" target="77c9ratOZqriTQwKT7vz-7" edge="1">
          <mxGeometry relative="1" as="geometry" />
        </mxCell>
        <mxCell id="KA5vXZ2nPaFK-a-9JE_G-16" value="" style="endArrow=none;html=1;rounded=0;entryX=0.5;entryY=1;entryDx=0;entryDy=0;exitX=0.5;exitY=0;exitDx=0;exitDy=0;exitPerimeter=0;" edge="1" parent="1" source="IGpdcPXpx3QODBAOmaDT-111" target="2ZxViYWchOxOmelXp1Hh-26">
          <mxGeometry width="50" height="50" relative="1" as="geometry">
            <mxPoint x="1689" y="1187" as="sourcePoint" />
            <mxPoint x="1421" y="918" as="targetPoint" />
          </mxGeometry>
        </mxCell>
        <mxCell id="KA5vXZ2nPaFK-a-9JE_G-18" value="" style="endArrow=none;html=1;rounded=0;entryX=0;entryY=0.5;entryDx=0;entryDy=0;entryPerimeter=0;exitX=1;exitY=0.5;exitDx=0;exitDy=0;" edge="1" parent="1" source="9Mot5vRxFBjQDdBxqjVs-86" target="IGpdcPXpx3QODBAOmaDT-12">
          <mxGeometry width="50" height="50" relative="1" as="geometry">
            <mxPoint x="1366" y="1021" as="sourcePoint" />
            <mxPoint x="1416" y="971" as="targetPoint" />
          </mxGeometry>
        </mxCell>
        <mxCell id="KA5vXZ2nPaFK-a-9JE_G-20" value="" style="endArrow=none;html=1;rounded=0;entryX=0;entryY=0.5;entryDx=0;entryDy=0;exitX=1;exitY=0.5;exitDx=0;exitDy=0;exitPerimeter=0;" edge="1" parent="1" source="2ZxViYWchOxOmelXp1Hh-42" target="9Mot5vRxFBjQDdBxqjVs-2">
          <mxGeometry width="50" height="50" relative="1" as="geometry">
            <mxPoint x="1083" y="358" as="sourcePoint" />
            <mxPoint x="1133" y="308" as="targetPoint" />
          </mxGeometry>
        </mxCell>
        <mxCell id="KA5vXZ2nPaFK-a-9JE_G-21" value="" style="endArrow=none;html=1;rounded=0;entryX=0;entryY=0.5;entryDx=0;entryDy=0;entryPerimeter=0;exitX=1;exitY=0.5;exitDx=0;exitDy=0;" edge="1" parent="1" source="9Mot5vRxFBjQDdBxqjVs-78" target="IGpdcPXpx3QODBAOmaDT-111">
          <mxGeometry width="50" height="50" relative="1" as="geometry">
            <mxPoint x="1083" y="859" as="sourcePoint" />
            <mxPoint x="1133" y="809" as="targetPoint" />
          </mxGeometry>
        </mxCell>
        <mxCell id="KA5vXZ2nPaFK-a-9JE_G-23" value="" style="endArrow=none;html=1;rounded=0;entryX=0;entryY=0.5;entryDx=0;entryDy=0;entryPerimeter=0;exitX=1;exitY=0.5;exitDx=0;exitDy=0;" edge="1" parent="1" source="2ZxViYWchOxOmelXp1Hh-27" target="IGpdcPXpx3QODBAOmaDT-8">
          <mxGeometry width="50" height="50" relative="1" as="geometry">
            <mxPoint x="1185" y="899" as="sourcePoint" />
            <mxPoint x="1629" y="985" as="targetPoint" />
            <Array as="points" />
          </mxGeometry>
        </mxCell>
        <mxCell id="2ZxViYWchOxOmelXp1Hh-18" value="PROGETTO" style="rounded=1;whiteSpace=wrap;html=1;shadow=0;glass=0;points=[[0,0,0,0,0],[0,0.25,0,0,0],[0,0.5,0,0,0],[0,0.75,0,0,0],[0,1,0,0,0],[0.25,0,0,0,0],[0.25,1,0,0,0],[0.5,0,0,0,0],[0.5,1,0,0,0],[0.75,0,0,0,0],[0.75,1,0,0,0],[1,0,0,0,0],[1,0.25,0,0,0],[1,0.5,0,0,0],[1,0.75,0,0,0],[1,1,0,0,0]];fontSize=15;labelBackgroundColor=none;fillColor=#FAE5C7;strokeColor=#0F8B8D;fontColor=#143642;" parent="1" vertex="1">
          <mxGeometry x="1161" y="896" width="130.5" height="40" as="geometry" />
        </mxCell>
        <mxCell id="KA5vXZ2nPaFK-a-9JE_G-28" value="" style="endArrow=none;html=1;rounded=0;entryX=0;entryY=0.5;entryDx=0;entryDy=0;entryPerimeter=0;exitX=1;exitY=0.5;exitDx=0;exitDy=0;" edge="1" parent="1" source="IGpdcPXpx3QODBAOmaDT-10" target="2ZxViYWchOxOmelXp1Hh-18">
          <mxGeometry width="50" height="50" relative="1" as="geometry">
            <mxPoint x="1279" y="912" as="sourcePoint" />
            <mxPoint x="1329" y="862" as="targetPoint" />
          </mxGeometry>
        </mxCell>
        <mxCell id="KA5vXZ2nPaFK-a-9JE_G-29" value="" style="endArrow=none;html=1;rounded=0;entryX=1;entryY=0.5;entryDx=0;entryDy=0;entryPerimeter=0;exitX=0;exitY=0.5;exitDx=0;exitDy=0;" edge="1" parent="1" source="IGpdcPXpx3QODBAOmaDT-10" target="IGpdcPXpx3QODBAOmaDT-12">
          <mxGeometry width="50" height="50" relative="1" as="geometry">
            <mxPoint x="1279" y="912" as="sourcePoint" />
            <mxPoint x="1329" y="862" as="targetPoint" />
          </mxGeometry>
        </mxCell>
        <mxCell id="KA5vXZ2nPaFK-a-9JE_G-30" value="" style="endArrow=none;html=1;rounded=0;entryX=0.5;entryY=1;entryDx=0;entryDy=0;entryPerimeter=0;exitX=0.5;exitY=0;exitDx=0;exitDy=0;" edge="1" parent="1" source="9Mot5vRxFBjQDdBxqjVs-104" target="9Mot5vRxFBjQDdBxqjVs-103">
          <mxGeometry width="50" height="50" relative="1" as="geometry">
            <mxPoint x="1279" y="540" as="sourcePoint" />
            <mxPoint x="1329" y="490" as="targetPoint" />
          </mxGeometry>
        </mxCell>
        <mxCell id="KA5vXZ2nPaFK-a-9JE_G-31" value="" style="endArrow=none;html=1;rounded=0;exitX=0.5;exitY=0;exitDx=0;exitDy=0;exitPerimeter=0;entryX=0.5;entryY=1;entryDx=0;entryDy=0;" edge="1" parent="1" source="9Mot5vRxFBjQDdBxqjVs-58" target="9Mot5vRxFBjQDdBxqjVs-104">
          <mxGeometry width="50" height="50" relative="1" as="geometry">
            <mxPoint x="1279" y="540" as="sourcePoint" />
            <mxPoint x="1329" y="490" as="targetPoint" />
          </mxGeometry>
        </mxCell>
        <mxCell id="KA5vXZ2nPaFK-a-9JE_G-33" value="" style="endArrow=none;html=1;rounded=0;entryX=0;entryY=0.5;entryDx=0;entryDy=0;entryPerimeter=0;exitX=1;exitY=0.5;exitDx=0;exitDy=0;" edge="1" parent="1" source="9Mot5vRxFBjQDdBxqjVs-57" target="Dx_CMPOLSW68eJcPcujk-12">
          <mxGeometry width="50" height="50" relative="1" as="geometry">
            <mxPoint x="1279" y="540" as="sourcePoint" />
            <mxPoint x="1329" y="490" as="targetPoint" />
          </mxGeometry>
        </mxCell>
        <mxCell id="KA5vXZ2nPaFK-a-9JE_G-34" value="" style="endArrow=none;html=1;rounded=0;exitX=0.5;exitY=0;exitDx=0;exitDy=0;entryX=0.5;entryY=1;entryDx=0;entryDy=0;entryPerimeter=0;" edge="1" parent="1" source="9Mot5vRxFBjQDdBxqjVs-78" target="IGpdcPXpx3QODBAOmaDT-12">
          <mxGeometry width="50" height="50" relative="1" as="geometry">
            <mxPoint x="961" y="1080" as="sourcePoint" />
            <mxPoint x="1011" y="1030" as="targetPoint" />
          </mxGeometry>
        </mxCell>
        <mxCell id="KA5vXZ2nPaFK-a-9JE_G-35" value="" style="endArrow=none;html=1;rounded=0;entryX=0;entryY=0.5;entryDx=0;entryDy=0;entryPerimeter=0;exitX=0.5;exitY=1;exitDx=0;exitDy=0;" edge="1" parent="1" source="Dx_CMPOLSW68eJcPcujk-19" target="2ZxViYWchOxOmelXp1Hh-42">
          <mxGeometry width="50" height="50" relative="1" as="geometry">
            <mxPoint x="961" y="414" as="sourcePoint" />
            <mxPoint x="1011" y="364" as="targetPoint" />
            <Array as="points">
              <mxPoint x="957" y="684" />
            </Array>
          </mxGeometry>
        </mxCell>
        <mxCell id="KA5vXZ2nPaFK-a-9JE_G-36" value="" style="endArrow=none;html=1;rounded=0;entryX=0.5;entryY=0;entryDx=0;entryDy=0;exitX=0.5;exitY=1;exitDx=0;exitDy=0;exitPerimeter=0;" edge="1" parent="1" source="Dx_CMPOLSW68eJcPcujk-12" target="Dx_CMPOLSW68eJcPcujk-19">
          <mxGeometry width="50" height="50" relative="1" as="geometry">
            <mxPoint x="961" y="414" as="sourcePoint" />
            <mxPoint x="1011" y="364" as="targetPoint" />
          </mxGeometry>
        </mxCell>
        <mxCell id="KA5vXZ2nPaFK-a-9JE_G-38" value="" style="endArrow=none;html=1;rounded=0;exitX=0;exitY=0.5;exitDx=0;exitDy=0;entryX=1;entryY=0.5;entryDx=0;entryDy=0;entryPerimeter=0;" edge="1" parent="1" source="Dx_CMPOLSW68eJcPcujk-28" target="Dx_CMPOLSW68eJcPcujk-12">
          <mxGeometry width="50" height="50" relative="1" as="geometry">
            <mxPoint x="961" y="263" as="sourcePoint" />
            <mxPoint x="1011" y="213" as="targetPoint" />
          </mxGeometry>
        </mxCell>
        <mxCell id="KA5vXZ2nPaFK-a-9JE_G-39" style="edgeStyle=orthogonalEdgeStyle;rounded=1;orthogonalLoop=1;jettySize=auto;html=1;entryX=1;entryY=0.5;entryDx=0;entryDy=0;fontFamily=Helvetica;fontSize=15;fontColor=default;endArrow=none;endFill=0;labelBackgroundColor=none;exitX=0.5;exitY=0;exitDx=0;exitDy=0;strokeColor=#A8201A;exitPerimeter=0;" edge="1" parent="1" source="IGpdcPXpx3QODBAOmaDT-103" target="Dx_CMPOLSW68eJcPcujk-28">
          <mxGeometry relative="1" as="geometry">
            <mxPoint x="1812" y="-168" as="sourcePoint" />
            <mxPoint x="1656" y="119" as="targetPoint" />
            <Array as="points">
              <mxPoint x="1689" y="525" />
            </Array>
          </mxGeometry>
        </mxCell>
        <mxCell id="KA5vXZ2nPaFK-a-9JE_G-40" value="" style="endArrow=none;html=1;rounded=0;entryX=0.5;entryY=1;entryDx=0;entryDy=0;entryPerimeter=0;exitX=0.5;exitY=0;exitDx=0;exitDy=0;" edge="1" parent="1" source="2ZxViYWchOxOmelXp1Hh-60" target="2ZxViYWchOxOmelXp1Hh-59">
          <mxGeometry width="50" height="50" relative="1" as="geometry">
            <mxPoint x="1371" y="690" as="sourcePoint" />
            <mxPoint x="1421" y="640" as="targetPoint" />
          </mxGeometry>
        </mxCell>
        <mxCell id="KA5vXZ2nPaFK-a-9JE_G-41" value="" style="endArrow=none;html=1;rounded=0;entryX=0.5;entryY=1;entryDx=0;entryDy=0;exitX=0.5;exitY=0;exitDx=0;exitDy=0;exitPerimeter=0;" edge="1" parent="1" source="Dx_CMPOLSW68eJcPcujk-12" target="2ZxViYWchOxOmelXp1Hh-60">
          <mxGeometry width="50" height="50" relative="1" as="geometry">
            <mxPoint x="1371" y="424" as="sourcePoint" />
            <mxPoint x="1421" y="374" as="targetPoint" />
          </mxGeometry>
        </mxCell>
        <mxCell id="KA5vXZ2nPaFK-a-9JE_G-42" value="" style="endArrow=none;html=1;rounded=0;entryX=0.25;entryY=1;entryDx=0;entryDy=0;entryPerimeter=0;exitX=0.5;exitY=0;exitDx=0;exitDy=0;" edge="1" parent="1" source="2ZxViYWchOxOmelXp1Hh-9" target="IGpdcPXpx3QODBAOmaDT-103">
          <mxGeometry width="50" height="50" relative="1" as="geometry">
            <mxPoint x="1507" y="602" as="sourcePoint" />
            <mxPoint x="1557" y="552" as="targetPoint" />
          </mxGeometry>
        </mxCell>
        <mxCell id="KA5vXZ2nPaFK-a-9JE_G-44" value="" style="endArrow=none;html=1;rounded=0;exitX=0.5;exitY=1;exitDx=0;exitDy=0;" edge="1" parent="1" source="2ZxViYWchOxOmelXp1Hh-9">
          <mxGeometry width="50" height="50" relative="1" as="geometry">
            <mxPoint x="1507" y="602" as="sourcePoint" />
            <mxPoint x="1649" y="892" as="targetPoint" />
          </mxGeometry>
        </mxCell>
        <mxCell id="KA5vXZ2nPaFK-a-9JE_G-47" value="" style="endArrow=none;html=1;rounded=0;entryX=0.5;entryY=1;entryDx=0;entryDy=0;" edge="1" parent="1" target="IGpdcPXpx3QODBAOmaDT-101">
          <mxGeometry width="50" height="50" relative="1" as="geometry">
            <mxPoint x="1740" y="895" as="sourcePoint" />
            <mxPoint x="1557" y="552" as="targetPoint" />
          </mxGeometry>
        </mxCell>
        <mxCell id="KA5vXZ2nPaFK-a-9JE_G-49" value="" style="endArrow=none;html=1;rounded=0;entryX=0.5;entryY=0;entryDx=0;entryDy=0;exitX=0.75;exitY=1;exitDx=0;exitDy=0;exitPerimeter=0;" edge="1" parent="1" source="IGpdcPXpx3QODBAOmaDT-103" target="IGpdcPXpx3QODBAOmaDT-101">
          <mxGeometry width="50" height="50" relative="1" as="geometry">
            <mxPoint x="1507" y="602" as="sourcePoint" />
            <mxPoint x="1557" y="552" as="targetPoint" />
          </mxGeometry>
        </mxCell>
        <mxCell id="KA5vXZ2nPaFK-a-9JE_G-50" value="" style="endArrow=none;html=1;rounded=0;exitX=1;exitY=0.5;exitDx=0;exitDy=0;exitPerimeter=0;entryX=0;entryY=0.5;entryDx=0;entryDy=0;" edge="1" parent="1" source="2ZxViYWchOxOmelXp1Hh-18" target="2ZxViYWchOxOmelXp1Hh-27">
          <mxGeometry width="50" height="50" relative="1" as="geometry">
            <mxPoint x="1507" y="602" as="sourcePoint" />
            <mxPoint x="1557" y="552" as="targetPoint" />
          </mxGeometry>
        </mxCell>
        <mxCell id="KA5vXZ2nPaFK-a-9JE_G-52" style="edgeStyle=orthogonalEdgeStyle;rounded=1;orthogonalLoop=1;jettySize=auto;html=1;entryX=0.909;entryY=-0.062;entryDx=0;entryDy=0;entryPerimeter=0;fontFamily=Helvetica;fontSize=15;fontColor=default;endArrow=none;endFill=0;labelBackgroundColor=none;exitX=0;exitY=0.5;exitDx=0;exitDy=0;strokeColor=#A8201A;" edge="1" parent="1" source="Dx_CMPOLSW68eJcPcujk-40" target="Dx_CMPOLSW68eJcPcujk-12">
          <mxGeometry relative="1" as="geometry">
            <mxPoint x="1663" y="-490" as="sourcePoint" />
            <mxPoint x="1507" y="-203" as="targetPoint" />
            <Array as="points">
              <mxPoint x="1022" y="400" />
            </Array>
          </mxGeometry>
        </mxCell>
        <mxCell id="KA5vXZ2nPaFK-a-9JE_G-53" style="edgeStyle=orthogonalEdgeStyle;rounded=1;orthogonalLoop=1;jettySize=auto;html=1;entryX=1;entryY=0.5;entryDx=0;entryDy=0;fontFamily=Helvetica;fontSize=15;fontColor=default;endArrow=none;endFill=0;labelBackgroundColor=none;strokeColor=#A8201A;exitX=1;exitY=0.5;exitDx=0;exitDy=0;exitPerimeter=0;" edge="1" parent="1" source="IGpdcPXpx3QODBAOmaDT-111" target="Dx_CMPOLSW68eJcPcujk-40">
          <mxGeometry relative="1" as="geometry">
            <mxPoint x="2021" y="585" as="sourcePoint" />
            <mxPoint x="1939" y="-125" as="targetPoint" />
            <Array as="points">
              <mxPoint x="2084" y="1231" />
              <mxPoint x="2084" y="400" />
            </Array>
          </mxGeometry>
        </mxCell>
        <mxCell id="KA5vXZ2nPaFK-a-9JE_G-56" style="edgeStyle=orthogonalEdgeStyle;rounded=1;orthogonalLoop=1;jettySize=auto;html=1;entryX=1;entryY=0.5;entryDx=0;entryDy=0;fontFamily=Helvetica;fontSize=15;fontColor=default;endArrow=none;endFill=0;labelBackgroundColor=none;exitX=0.25;exitY=1;exitDx=0;exitDy=0;strokeColor=#A8201A;exitPerimeter=0;" edge="1" parent="1" source="IGpdcPXpx3QODBAOmaDT-8" target="Dx_CMPOLSW68eJcPcujk-1">
          <mxGeometry relative="1" as="geometry">
            <mxPoint x="1528" y="1017" as="sourcePoint" />
            <mxPoint x="1372" y="1304" as="targetPoint" />
            <Array as="points">
              <mxPoint x="1643" y="1147" />
            </Array>
          </mxGeometry>
        </mxCell>
        <mxCell id="KA5vXZ2nPaFK-a-9JE_G-61" style="edgeStyle=orthogonalEdgeStyle;rounded=1;orthogonalLoop=1;jettySize=auto;html=1;entryX=0;entryY=0.5;entryDx=0;entryDy=0;fontFamily=Helvetica;fontSize=15;fontColor=default;endArrow=none;endFill=0;labelBackgroundColor=none;exitX=0.75;exitY=1;exitDx=0;exitDy=0;strokeColor=#A8201A;exitPerimeter=0;" edge="1" parent="1" source="IGpdcPXpx3QODBAOmaDT-12" target="Dx_CMPOLSW68eJcPcujk-1">
          <mxGeometry relative="1" as="geometry">
            <mxPoint x="1078" y="1046" as="sourcePoint" />
            <mxPoint x="922" y="1333" as="targetPoint" />
            <Array as="points">
              <mxPoint x="878" y="1147" />
            </Array>
          </mxGeometry>
        </mxCell>
        <mxCell id="KA5vXZ2nPaFK-a-9JE_G-63" value="Ciclo_Istruzione" style="text;html=1;align=center;verticalAlign=middle;resizable=0;points=[];autosize=1;strokeColor=none;fillColor=none;fontSize=15;fontFamily=Helvetica;labelBackgroundColor=none;rounded=1;fontColor=#143642;" vertex="1" parent="1">
          <mxGeometry x="1898" y="884" width="125" height="30" as="geometry" />
        </mxCell>
        <mxCell id="KA5vXZ2nPaFK-a-9JE_G-64" value="cod_Meccanografico" style="text;html=1;align=center;verticalAlign=middle;resizable=0;points=[];autosize=1;strokeColor=none;fillColor=none;fontSize=15;fontFamily=Helvetica;labelBackgroundColor=none;rounded=1;fontColor=#143642;" vertex="1" parent="1">
          <mxGeometry x="1884" y="1033" width="160" height="30" as="geometry" />
        </mxCell>
        <mxCell id="KA5vXZ2nPaFK-a-9JE_G-65" value="Collabora" style="text;html=1;align=center;verticalAlign=middle;resizable=0;points=[];autosize=1;strokeColor=none;fillColor=none;fontSize=15;fontFamily=Helvetica;labelBackgroundColor=none;rounded=1;fontColor=#143642;" vertex="1" parent="1">
          <mxGeometry x="1857" y="919" width="90" height="30" as="geometry" />
        </mxCell>
        <mxCell id="KA5vXZ2nPaFK-a-9JE_G-67" value="Tipo" style="text;html=1;align=center;verticalAlign=middle;resizable=0;points=[];autosize=1;strokeColor=none;fillColor=none;fontSize=15;fontFamily=Helvetica;labelBackgroundColor=none;rotation=0;rounded=1;fontColor=#143642;" vertex="1" parent="1">
          <mxGeometry x="1872" y="962" width="50" height="30" as="geometry" />
        </mxCell>
        <mxCell id="KA5vXZ2nPaFK-a-9JE_G-68" value="Comune" style="text;html=1;align=center;verticalAlign=middle;resizable=0;points=[];autosize=1;strokeColor=none;fillColor=none;fontSize=15;fontFamily=Helvetica;labelBackgroundColor=none;rounded=1;fontColor=#143642;" vertex="1" parent="1">
          <mxGeometry x="1730" y="820" width="80" height="30" as="geometry" />
        </mxCell>
        <mxCell id="KA5vXZ2nPaFK-a-9JE_G-69" value="&lt;span style=&quot;font-size: 15px;&quot;&gt;Umidità&lt;/span&gt;" style="text;html=1;align=center;verticalAlign=middle;resizable=0;points=[];autosize=1;strokeColor=none;fillColor=none;fontSize=15;fontFamily=Helvetica;labelBackgroundColor=none;rounded=1;fontColor=#143642;" vertex="1" parent="1">
          <mxGeometry x="570" y="735" width="70" height="30" as="geometry" />
        </mxCell>
        <mxCell id="KA5vXZ2nPaFK-a-9JE_G-70" style="edgeStyle=none;shape=connector;rounded=1;orthogonalLoop=1;jettySize=auto;html=1;entryX=0.25;entryY=1;entryDx=0;entryDy=0;labelBackgroundColor=none;fontFamily=Helvetica;fontSize=15;fontColor=default;endArrow=none;endFill=0;strokeColor=#A8201A;exitX=1;exitY=0.5;exitDx=0;exitDy=0;entryPerimeter=0;" edge="1" parent="1" source="KA5vXZ2nPaFK-a-9JE_G-78" target="9Mot5vRxFBjQDdBxqjVs-58">
          <mxGeometry relative="1" as="geometry">
            <Array as="points">
              <mxPoint x="459" y="848" />
            </Array>
            <mxPoint x="364.99999999999" y="715" as="sourcePoint" />
            <mxPoint x="338" y="861" as="targetPoint" />
          </mxGeometry>
        </mxCell>
        <mxCell id="KA5vXZ2nPaFK-a-9JE_G-72" style="edgeStyle=none;shape=connector;rounded=1;orthogonalLoop=1;jettySize=auto;html=1;exitX=0;exitY=0;exitDx=0;exitDy=0;labelBackgroundColor=none;fontFamily=Helvetica;fontSize=15;fontColor=default;endArrow=oval;endFill=0;strokeColor=#A8201A;" edge="1" parent="1" source="KA5vXZ2nPaFK-a-9JE_G-78" target="KA5vXZ2nPaFK-a-9JE_G-74">
          <mxGeometry relative="1" as="geometry">
            <mxPoint x="160" y="993" as="targetPoint" />
          </mxGeometry>
        </mxCell>
        <mxCell id="KA5vXZ2nPaFK-a-9JE_G-73" style="edgeStyle=none;shape=connector;rounded=1;orthogonalLoop=1;jettySize=auto;html=1;labelBackgroundColor=none;fontFamily=Helvetica;fontSize=15;fontColor=default;endArrow=oval;endFill=0;strokeColor=#A8201A;entryX=0.509;entryY=1.108;entryDx=0;entryDy=0;entryPerimeter=0;" edge="1" parent="1" source="KA5vXZ2nPaFK-a-9JE_G-78" target="KA5vXZ2nPaFK-a-9JE_G-75">
          <mxGeometry relative="1" as="geometry">
            <mxPoint x="340" y="1142" as="sourcePoint" />
            <mxPoint x="240" y="788" as="targetPoint" />
          </mxGeometry>
        </mxCell>
        <mxCell id="KA5vXZ2nPaFK-a-9JE_G-74" value="&lt;span style=&quot;font-size: 15px;&quot;&gt;Biomassa&lt;/span&gt;" style="text;html=1;align=center;verticalAlign=middle;resizable=0;points=[];autosize=1;strokeColor=none;fillColor=none;fontSize=15;fontFamily=Helvetica;labelBackgroundColor=none;rounded=1;fontColor=#143642;" vertex="1" parent="1">
          <mxGeometry x="125" y="794" width="90" height="30" as="geometry" />
        </mxCell>
        <mxCell id="KA5vXZ2nPaFK-a-9JE_G-75" value="&lt;span style=&quot;font-size: 15px;&quot;&gt;Danni&lt;/span&gt;" style="text;html=1;align=center;verticalAlign=middle;resizable=0;points=[];autosize=1;strokeColor=none;fillColor=none;fontSize=15;fontFamily=Helvetica;labelBackgroundColor=none;rounded=1;fontColor=#143642;" vertex="1" parent="1">
          <mxGeometry x="182" y="744" width="60" height="30" as="geometry" />
        </mxCell>
        <mxCell id="KA5vXZ2nPaFK-a-9JE_G-76" style="edgeStyle=none;shape=connector;rounded=1;orthogonalLoop=1;jettySize=auto;html=1;exitX=0;exitY=0.5;exitDx=0;exitDy=0;labelBackgroundColor=none;fontFamily=Helvetica;fontSize=15;fontColor=default;endArrow=oval;endFill=0;strokeColor=#A8201A;" edge="1" parent="1" source="KA5vXZ2nPaFK-a-9JE_G-78" target="KA5vXZ2nPaFK-a-9JE_G-79">
          <mxGeometry relative="1" as="geometry" />
        </mxCell>
        <mxCell id="KA5vXZ2nPaFK-a-9JE_G-77" style="edgeStyle=none;shape=connector;rounded=1;orthogonalLoop=1;jettySize=auto;html=1;exitX=0;exitY=1;exitDx=0;exitDy=0;labelBackgroundColor=none;fontFamily=Helvetica;fontSize=15;fontColor=default;endArrow=oval;endFill=0;strokeColor=#A8201A;entryX=1.084;entryY=0.679;entryDx=0;entryDy=0;entryPerimeter=0;" edge="1" parent="1" source="KA5vXZ2nPaFK-a-9JE_G-78" target="KA5vXZ2nPaFK-a-9JE_G-80">
          <mxGeometry relative="1" as="geometry">
            <mxPoint x="148" y="1100" as="targetPoint" />
          </mxGeometry>
        </mxCell>
        <mxCell id="KA5vXZ2nPaFK-a-9JE_G-78" value="Altre informazioni" style="ellipse;whiteSpace=wrap;html=1;fontFamily=Helvetica;fontSize=15;labelBackgroundColor=none;rounded=1;fillColor=#FAE5C7;strokeColor=#0F8B8D;fontColor=#143642;" vertex="1" parent="1">
          <mxGeometry x="252" y="824" width="130" height="40" as="geometry" />
        </mxCell>
        <mxCell id="KA5vXZ2nPaFK-a-9JE_G-79" value="&lt;span style=&quot;font-size: 15px;&quot;&gt;Fioritura&lt;/span&gt;" style="text;html=1;align=center;verticalAlign=middle;resizable=0;points=[];autosize=1;strokeColor=none;fillColor=none;fontSize=15;fontFamily=Helvetica;labelBackgroundColor=none;rounded=1;fontColor=#143642;" vertex="1" parent="1">
          <mxGeometry x="130" y="838" width="80" height="30" as="geometry" />
        </mxCell>
        <mxCell id="KA5vXZ2nPaFK-a-9JE_G-80" value="&lt;span style=&quot;font-size: 15px;&quot;&gt;Struttura&lt;/span&gt;" style="text;html=1;align=center;verticalAlign=middle;resizable=0;points=[];autosize=1;strokeColor=none;fillColor=none;fontSize=15;fontFamily=Helvetica;labelBackgroundColor=none;rounded=1;fontColor=#143642;" vertex="1" parent="1">
          <mxGeometry x="132" y="875" width="80" height="30" as="geometry" />
        </mxCell>
        <mxCell id="KA5vXZ2nPaFK-a-9JE_G-81" value="&lt;span style=&quot;font-size: 15px;&quot;&gt;Frutticazione&lt;br&gt;&lt;/span&gt;" style="text;html=1;align=center;verticalAlign=middle;resizable=0;points=[];autosize=1;strokeColor=none;fillColor=none;fontSize=15;fontFamily=Helvetica;labelBackgroundColor=none;rounded=1;fontColor=#143642;" vertex="1" parent="1">
          <mxGeometry x="261" y="744" width="104" height="30" as="geometry" />
        </mxCell>
        <mxCell id="KA5vXZ2nPaFK-a-9JE_G-82" style="edgeStyle=none;shape=connector;rounded=1;orthogonalLoop=1;jettySize=auto;html=1;labelBackgroundColor=none;fontFamily=Helvetica;fontSize=15;fontColor=default;endArrow=oval;endFill=0;strokeColor=#A8201A;exitX=0.5;exitY=0;exitDx=0;exitDy=0;entryX=0.503;entryY=1.377;entryDx=0;entryDy=0;entryPerimeter=0;" edge="1" parent="1" source="KA5vXZ2nPaFK-a-9JE_G-78" target="KA5vXZ2nPaFK-a-9JE_G-81">
          <mxGeometry relative="1" as="geometry">
            <mxPoint x="303" y="835" as="sourcePoint" />
            <mxPoint x="239" y="784" as="targetPoint" />
          </mxGeometry>
        </mxCell>
        <mxCell id="KA5vXZ2nPaFK-a-9JE_G-83" style="edgeStyle=none;shape=connector;rounded=1;orthogonalLoop=1;jettySize=auto;html=1;entryX=0.835;entryY=1.051;entryDx=0;entryDy=0;entryPerimeter=0;labelBackgroundColor=none;fontFamily=Helvetica;fontSize=15;fontColor=default;endArrow=oval;endFill=0;strokeColor=#A8201A;" edge="1" parent="1" target="KA5vXZ2nPaFK-a-9JE_G-87">
          <mxGeometry relative="1" as="geometry">
            <mxPoint x="423" y="720" as="sourcePoint" />
            <mxPoint x="290.15999999999985" y="727.31" as="targetPoint" />
            <Array as="points" />
          </mxGeometry>
        </mxCell>
        <mxCell id="KA5vXZ2nPaFK-a-9JE_G-84" style="edgeStyle=none;shape=connector;rounded=1;orthogonalLoop=1;jettySize=auto;html=1;labelBackgroundColor=none;fontFamily=Helvetica;fontSize=15;fontColor=default;endArrow=oval;endFill=0;entryX=0.746;entryY=1.274;entryDx=0;entryDy=0;entryPerimeter=0;strokeColor=#A8201A;exitX=0;exitY=0.5;exitDx=0;exitDy=0;exitPerimeter=0;" edge="1" parent="1" target="KA5vXZ2nPaFK-a-9JE_G-86" source="9Mot5vRxFBjQDdBxqjVs-58">
          <mxGeometry relative="1" as="geometry">
            <mxPoint x="390" y="667" as="sourcePoint" />
          </mxGeometry>
        </mxCell>
        <mxCell id="KA5vXZ2nPaFK-a-9JE_G-85" style="edgeStyle=orthogonalEdgeStyle;rounded=0;orthogonalLoop=1;jettySize=auto;html=1;exitX=0.25;exitY=0;exitDx=0;exitDy=0;exitPerimeter=0;strokeColor=#A8201A;fontColor=#143642;fillColor=#FAE5C7;endArrow=oval;endFill=1;" edge="1" parent="1" target="KA5vXZ2nPaFK-a-9JE_G-89" source="9Mot5vRxFBjQDdBxqjVs-58">
          <mxGeometry relative="1" as="geometry">
            <mxPoint x="266.5" y="554" as="sourcePoint" />
            <Array as="points">
              <mxPoint x="454" y="682" />
              <mxPoint x="456" y="682" />
              <mxPoint x="456" y="664" />
            </Array>
          </mxGeometry>
        </mxCell>
        <mxCell id="KA5vXZ2nPaFK-a-9JE_G-86" value="&lt;span style=&quot;font-size: 15px;&quot;&gt;DataOra_Inserimento&lt;/span&gt;" style="text;html=1;align=center;verticalAlign=middle;resizable=0;points=[];autosize=1;strokeColor=none;fillColor=none;fontSize=15;fontFamily=Helvetica;labelBackgroundColor=none;rounded=1;fontColor=#143642;" vertex="1" parent="1">
          <mxGeometry x="244.5" y="664" width="170" height="30" as="geometry" />
        </mxCell>
        <mxCell id="KA5vXZ2nPaFK-a-9JE_G-87" value="&lt;span style=&quot;font-size: 15px;&quot;&gt;DataOra_Rilevazione&lt;/span&gt;" style="text;html=1;align=center;verticalAlign=middle;resizable=0;points=[];autosize=1;strokeColor=none;fillColor=none;fontSize=15;fontFamily=Helvetica;labelBackgroundColor=none;rounded=1;fontColor=#143642;" vertex="1" parent="1">
          <mxGeometry x="175" y="704" width="170" height="30" as="geometry" />
        </mxCell>
        <mxCell id="KA5vXZ2nPaFK-a-9JE_G-89" value="&lt;span style=&quot;font-size: 15px;&quot;&gt;ID&lt;/span&gt;" style="text;html=1;align=center;verticalAlign=middle;resizable=0;points=[];autosize=1;strokeColor=none;fillColor=none;fontSize=15;fontFamily=Helvetica;labelBackgroundColor=none;rounded=1;fontColor=#143642;arcSize=0;" vertex="1" parent="1">
          <mxGeometry x="407" y="649" width="33" height="30" as="geometry" />
        </mxCell>
        <mxCell id="KA5vXZ2nPaFK-a-9JE_G-92" value="&lt;span style=&quot;font-size: 15px;&quot;&gt;Tipo&lt;/span&gt;" style="text;html=1;align=center;verticalAlign=middle;resizable=0;points=[];autosize=1;strokeColor=none;fillColor=none;fontSize=15;fontFamily=Helvetica;labelBackgroundColor=none;rounded=1;fontColor=#143642;" vertex="1" parent="1">
          <mxGeometry x="440" y="415.5" width="50" height="30" as="geometry" />
        </mxCell>
        <mxCell id="KA5vXZ2nPaFK-a-9JE_G-93" value="&lt;span style=&quot;font-size: 15px;&quot;&gt;ID&lt;/span&gt;" style="text;html=1;align=center;verticalAlign=middle;resizable=0;points=[];autosize=1;strokeColor=none;fillColor=none;fontSize=15;fontFamily=Helvetica;labelBackgroundColor=none;rounded=1;fontColor=#143642;" vertex="1" parent="1">
          <mxGeometry x="377" y="475" width="40" height="30" as="geometry" />
        </mxCell>
        <mxCell id="KA5vXZ2nPaFK-a-9JE_G-94" value="&lt;span style=&quot;font-size: 15px;&quot;&gt;Acquisizione&lt;br&gt;&lt;/span&gt;" style="text;html=1;align=center;verticalAlign=middle;resizable=0;points=[];autosize=1;strokeColor=none;fillColor=none;fontSize=15;fontFamily=Helvetica;labelBackgroundColor=none;rounded=1;fontColor=#143642;" vertex="1" parent="1">
          <mxGeometry x="480" y="420" width="110" height="30" as="geometry" />
        </mxCell>
        <mxCell id="KA5vXZ2nPaFK-a-9JE_G-95" style="edgeStyle=orthogonalEdgeStyle;rounded=0;orthogonalLoop=1;jettySize=auto;html=1;exitX=0;exitY=0.5;exitDx=0;exitDy=0;exitPerimeter=0;strokeColor=#A8201A;fontColor=#143642;fillColor=#FAE5C7;endArrow=oval;endFill=1;entryX=0.536;entryY=1;entryDx=0;entryDy=0;entryPerimeter=0;" edge="1" parent="1" source="9Mot5vRxFBjQDdBxqjVs-103" target="KA5vXZ2nPaFK-a-9JE_G-93">
          <mxGeometry relative="1" as="geometry">
            <mxPoint x="335.5" y="555" as="sourcePoint" />
            <mxPoint x="400" y="528" as="targetPoint" />
            <Array as="points">
              <mxPoint x="425" y="504" />
              <mxPoint x="398" y="505" />
            </Array>
          </mxGeometry>
        </mxCell>
        <mxCell id="KA5vXZ2nPaFK-a-9JE_G-96" style="edgeStyle=none;shape=connector;rounded=1;orthogonalLoop=1;jettySize=auto;html=1;entryX=0.384;entryY=1.002;entryDx=0;entryDy=0;entryPerimeter=0;labelBackgroundColor=none;fontFamily=Helvetica;fontSize=15;fontColor=default;endArrow=oval;endFill=0;strokeColor=#A8201A;exitX=0.25;exitY=0;exitDx=0;exitDy=0;exitPerimeter=0;" edge="1" parent="1" source="9Mot5vRxFBjQDdBxqjVs-103" target="KA5vXZ2nPaFK-a-9JE_G-92">
          <mxGeometry relative="1" as="geometry">
            <mxPoint x="434.5" y="443" as="sourcePoint" />
            <mxPoint x="328.5" y="459" as="targetPoint" />
            <Array as="points" />
          </mxGeometry>
        </mxCell>
        <mxCell id="KA5vXZ2nPaFK-a-9JE_G-97" style="edgeStyle=none;shape=connector;rounded=1;orthogonalLoop=1;jettySize=auto;html=1;labelBackgroundColor=none;fontFamily=Helvetica;fontSize=15;fontColor=default;endArrow=oval;endFill=0;strokeColor=#A8201A;exitX=0.75;exitY=0;exitDx=0;exitDy=0;exitPerimeter=0;" edge="1" parent="1" source="9Mot5vRxFBjQDdBxqjVs-103">
          <mxGeometry relative="1" as="geometry">
            <mxPoint x="470" y="494" as="sourcePoint" />
            <mxPoint x="512" y="450" as="targetPoint" />
            <Array as="points" />
          </mxGeometry>
        </mxCell>
        <mxCell id="KA5vXZ2nPaFK-a-9JE_G-98" value="&lt;span style=&quot;font-size: 15px;&quot;&gt;ID&lt;/span&gt;" style="text;html=1;align=center;verticalAlign=middle;resizable=0;points=[];autosize=1;strokeColor=none;fillColor=none;fontSize=15;fontFamily=Helvetica;labelBackgroundColor=none;rounded=1;fontColor=#143642;" vertex="1" parent="1">
          <mxGeometry x="911.25" y="242" width="40" height="30" as="geometry" />
        </mxCell>
        <mxCell id="KA5vXZ2nPaFK-a-9JE_G-99" style="edgeStyle=none;shape=connector;rounded=1;orthogonalLoop=1;jettySize=auto;html=1;labelBackgroundColor=none;fontFamily=Helvetica;fontSize=15;fontColor=default;endArrow=oval;endFill=0;strokeColor=#A8201A;exitX=0.75;exitY=0;exitDx=0;exitDy=0;exitPerimeter=0;entryX=0.324;entryY=1.123;entryDx=0;entryDy=0;entryPerimeter=0;" edge="1" parent="1" source="2ZxViYWchOxOmelXp1Hh-59" target="KA5vXZ2nPaFK-a-9JE_G-102">
          <mxGeometry relative="1" as="geometry">
            <mxPoint x="981" y="294" as="sourcePoint" />
            <mxPoint x="982" y="274" as="targetPoint" />
            <Array as="points" />
          </mxGeometry>
        </mxCell>
        <mxCell id="KA5vXZ2nPaFK-a-9JE_G-102" value="&lt;span style=&quot;font-size: 15px;&quot;&gt;Tipo&lt;/span&gt;" style="text;html=1;align=center;verticalAlign=middle;resizable=0;points=[];autosize=1;strokeColor=none;fillColor=none;fontSize=15;fontFamily=Helvetica;labelBackgroundColor=none;rounded=1;fontColor=#143642;" vertex="1" parent="1">
          <mxGeometry x="963" y="223" width="50" height="30" as="geometry" />
        </mxCell>
        <mxCell id="KA5vXZ2nPaFK-a-9JE_G-104" value="&lt;span style=&quot;font-size: 15px;&quot;&gt;ID&lt;/span&gt;" style="text;html=1;align=center;verticalAlign=middle;resizable=0;points=[];autosize=1;strokeColor=none;fillColor=none;fontSize=15;fontFamily=Helvetica;labelBackgroundColor=none;rounded=1;fontColor=#143642;arcSize=0;rotation=0;" vertex="1" parent="1">
          <mxGeometry x="879" y="577.5" width="40" height="30" as="geometry" />
        </mxCell>
        <mxCell id="KA5vXZ2nPaFK-a-9JE_G-110" style="edgeStyle=none;shape=connector;rounded=1;orthogonalLoop=1;jettySize=auto;html=1;labelBackgroundColor=none;fontFamily=Helvetica;fontSize=15;fontColor=default;endArrow=oval;endFill=1;strokeColor=#A8201A;exitX=0.206;exitY=1.003;exitDx=0;exitDy=0;exitPerimeter=0;entryX=0.681;entryY=-0.107;entryDx=0;entryDy=0;entryPerimeter=0;" edge="1" parent="1" source="Dx_CMPOLSW68eJcPcujk-12" target="KA5vXZ2nPaFK-a-9JE_G-104">
          <mxGeometry relative="1" as="geometry">
            <mxPoint x="911.25" y="549" as="sourcePoint" />
            <mxPoint x="911.25" y="591" as="targetPoint" />
          </mxGeometry>
        </mxCell>
        <mxCell id="KA5vXZ2nPaFK-a-9JE_G-115" style="edgeStyle=none;shape=connector;rounded=1;orthogonalLoop=1;jettySize=auto;html=1;exitX=0.25;exitY=0;exitDx=0;exitDy=0;exitPerimeter=0;labelBackgroundColor=none;fontFamily=Helvetica;fontSize=15;fontColor=default;endArrow=oval;endFill=1;strokeColor=#A8201A;entryX=0.537;entryY=1.033;entryDx=0;entryDy=0;entryPerimeter=0;" edge="1" parent="1" source="2ZxViYWchOxOmelXp1Hh-59" target="KA5vXZ2nPaFK-a-9JE_G-98">
          <mxGeometry relative="1" as="geometry">
            <mxPoint x="607" y="72" as="sourcePoint" />
            <mxPoint x="651" y="68" as="targetPoint" />
          </mxGeometry>
        </mxCell>
        <mxCell id="KA5vXZ2nPaFK-a-9JE_G-133" style="edgeStyle=none;shape=connector;rounded=1;orthogonalLoop=1;jettySize=auto;html=1;labelBackgroundColor=none;fontFamily=Helvetica;fontSize=15;fontColor=default;endArrow=oval;endFill=0;strokeColor=#A8201A;entryX=0.488;entryY=1.216;entryDx=0;entryDy=0;entryPerimeter=0;" edge="1" parent="1" target="KA5vXZ2nPaFK-a-9JE_G-135">
          <mxGeometry relative="1" as="geometry">
            <mxPoint x="878" y="506" as="sourcePoint" />
            <mxPoint x="886" y="471" as="targetPoint" />
          </mxGeometry>
        </mxCell>
        <mxCell id="KA5vXZ2nPaFK-a-9JE_G-134" style="edgeStyle=none;shape=connector;rounded=1;orthogonalLoop=1;jettySize=auto;html=1;labelBackgroundColor=none;fontFamily=Helvetica;fontSize=15;fontColor=default;endArrow=oval;endFill=0;strokeColor=#A8201A;exitX=0.25;exitY=0;exitDx=0;exitDy=0;exitPerimeter=0;entryX=0.508;entryY=1.127;entryDx=0;entryDy=0;entryPerimeter=0;" edge="1" parent="1" source="Dx_CMPOLSW68eJcPcujk-12" target="KA5vXZ2nPaFK-a-9JE_G-136">
          <mxGeometry relative="1" as="geometry">
            <mxPoint x="923.25" y="501" as="sourcePoint" />
            <mxPoint x="911.25" y="465" as="targetPoint" />
          </mxGeometry>
        </mxCell>
        <mxCell id="KA5vXZ2nPaFK-a-9JE_G-135" value="&lt;span style=&quot;font-size: 15px;&quot;&gt;Scopo&lt;br&gt;&lt;/span&gt;" style="text;html=1;align=center;verticalAlign=middle;resizable=0;points=[];autosize=1;strokeColor=none;fillColor=none;fontSize=15;fontFamily=Helvetica;labelBackgroundColor=none;rounded=1;fontColor=#143642;arcSize=0;rotation=0;" vertex="1" parent="1">
          <mxGeometry x="786" y="465" width="61" height="30" as="geometry" />
        </mxCell>
        <mxCell id="KA5vXZ2nPaFK-a-9JE_G-136" value="&lt;span style=&quot;font-size: 15px;&quot;&gt;Esposizione&lt;br&gt;&lt;/span&gt;" style="text;html=1;align=center;verticalAlign=middle;resizable=0;points=[];autosize=1;strokeColor=none;fillColor=none;fontSize=15;fontFamily=Helvetica;labelBackgroundColor=none;rounded=1;fontColor=#143642;arcSize=0;rotation=0;" vertex="1" parent="1">
          <mxGeometry x="812.25" y="430" width="99" height="30" as="geometry" />
        </mxCell>
        <mxCell id="KA5vXZ2nPaFK-a-9JE_G-137" value="Data_Messa_A_Dimora" style="text;html=1;align=center;verticalAlign=middle;resizable=0;points=[];autosize=1;strokeColor=none;fillColor=none;fontSize=15;fontFamily=Helvetica;labelBackgroundColor=none;rounded=1;fontColor=#143642;" vertex="1" parent="1">
          <mxGeometry x="958" y="561" width="177" height="30" as="geometry" />
        </mxCell>
        <mxCell id="KA5vXZ2nPaFK-a-9JE_G-138" style="edgeStyle=none;shape=connector;rounded=1;orthogonalLoop=1;jettySize=auto;html=1;labelBackgroundColor=none;fontFamily=Helvetica;fontSize=15;fontColor=default;endArrow=oval;endFill=0;strokeColor=#A8201A;entryX=0.39;entryY=0.11;entryDx=0;entryDy=0;entryPerimeter=0;" edge="1" parent="1" target="KA5vXZ2nPaFK-a-9JE_G-137">
          <mxGeometry relative="1" as="geometry">
            <mxPoint x="970" y="545" as="sourcePoint" />
            <mxPoint x="1229" y="585" as="targetPoint" />
            <Array as="points" />
          </mxGeometry>
        </mxCell>
        <mxCell id="KA5vXZ2nPaFK-a-9JE_G-139" style="edgeStyle=none;shape=connector;rounded=1;orthogonalLoop=1;jettySize=auto;html=1;labelBackgroundColor=none;fontFamily=Helvetica;fontSize=15;fontColor=default;endArrow=oval;endFill=0;strokeColor=#A8201A;entryX=0.038;entryY=0.251;entryDx=0;entryDy=0;entryPerimeter=0;" edge="1" parent="1" target="KA5vXZ2nPaFK-a-9JE_G-140">
          <mxGeometry relative="1" as="geometry">
            <mxPoint x="1036" y="542" as="sourcePoint" />
            <mxPoint x="1071" y="545" as="targetPoint" />
            <Array as="points" />
          </mxGeometry>
        </mxCell>
        <mxCell id="KA5vXZ2nPaFK-a-9JE_G-140" value="Nome_Comune" style="text;html=1;align=center;verticalAlign=middle;resizable=0;points=[];autosize=1;strokeColor=none;fillColor=none;fontSize=15;fontFamily=Helvetica;labelBackgroundColor=none;rounded=1;fontColor=#143642;" vertex="1" parent="1">
          <mxGeometry x="1070" y="531" width="123" height="30" as="geometry" />
        </mxCell>
        <mxCell id="KA5vXZ2nPaFK-a-9JE_G-142" style="edgeStyle=none;shape=connector;rounded=1;orthogonalLoop=1;jettySize=auto;html=1;labelBackgroundColor=none;fontFamily=Helvetica;fontSize=15;fontColor=default;endArrow=oval;endFill=1;strokeColor=#A8201A;exitX=0.117;exitY=1.006;exitDx=0;exitDy=0;exitPerimeter=0;entryX=0.679;entryY=-0.143;entryDx=0;entryDy=0;entryPerimeter=0;" edge="1" parent="1" source="2ZxViYWchOxOmelXp1Hh-42" target="KA5vXZ2nPaFK-a-9JE_G-143">
          <mxGeometry relative="1" as="geometry">
            <mxPoint x="1070" y="709" as="sourcePoint" />
            <mxPoint x="1066" y="738" as="targetPoint" />
          </mxGeometry>
        </mxCell>
        <mxCell id="KA5vXZ2nPaFK-a-9JE_G-143" value="&lt;span style=&quot;font-size: 15px;&quot;&gt;Nome_Scientifico&lt;/span&gt;" style="text;html=1;align=center;verticalAlign=middle;resizable=0;points=[];autosize=1;strokeColor=none;fillColor=none;fontSize=15;fontFamily=Helvetica;labelBackgroundColor=none;rounded=1;fontColor=#143642;arcSize=0;rotation=0;" vertex="1" parent="1">
          <mxGeometry x="975.25" y="747" width="135" height="30" as="geometry" />
        </mxCell>
        <mxCell id="KA5vXZ2nPaFK-a-9JE_G-144" style="edgeStyle=none;shape=connector;rounded=1;orthogonalLoop=1;jettySize=auto;html=1;labelBackgroundColor=none;fontFamily=Helvetica;fontSize=15;fontColor=default;endArrow=oval;endFill=0;strokeColor=#A8201A;entryX=0.463;entryY=-0.027;entryDx=0;entryDy=0;entryPerimeter=0;exitX=0.68;exitY=0.988;exitDx=0;exitDy=0;exitPerimeter=0;" edge="1" parent="1" source="2ZxViYWchOxOmelXp1Hh-42" target="KA5vXZ2nPaFK-a-9JE_G-145">
          <mxGeometry relative="1" as="geometry">
            <mxPoint x="1183" y="708" as="sourcePoint" />
            <mxPoint x="1184" y="751" as="targetPoint" />
            <Array as="points" />
          </mxGeometry>
        </mxCell>
        <mxCell id="KA5vXZ2nPaFK-a-9JE_G-145" value="&lt;span style=&quot;font-size: 15px;&quot;&gt;Substrato&lt;br&gt;&lt;/span&gt;" style="text;html=1;align=center;verticalAlign=middle;resizable=0;points=[];autosize=1;strokeColor=none;fillColor=none;fontSize=15;fontFamily=Helvetica;labelBackgroundColor=none;rounded=1;fontColor=#143642;arcSize=0;rotation=0;" vertex="1" parent="1">
          <mxGeometry x="1121" y="730" width="82" height="30" as="geometry" />
        </mxCell>
        <mxCell id="KA5vXZ2nPaFK-a-9JE_G-151" style="edgeStyle=none;shape=connector;rounded=1;orthogonalLoop=1;jettySize=auto;html=1;labelBackgroundColor=none;fontFamily=Helvetica;fontSize=15;fontColor=default;endArrow=oval;endFill=0;entryX=0.076;entryY=0.475;entryDx=0;entryDy=0;entryPerimeter=0;strokeColor=#A8201A;exitX=1;exitY=0.5;exitDx=0;exitDy=0;exitPerimeter=0;" edge="1" parent="1" target="KA5vXZ2nPaFK-a-9JE_G-161" source="IGpdcPXpx3QODBAOmaDT-103">
          <mxGeometry relative="1" as="geometry">
            <mxPoint x="1862" y="601" as="sourcePoint" />
            <mxPoint x="1916" y="542" as="targetPoint" />
          </mxGeometry>
        </mxCell>
        <mxCell id="KA5vXZ2nPaFK-a-9JE_G-152" style="edgeStyle=none;shape=connector;rounded=1;orthogonalLoop=1;jettySize=auto;html=1;exitX=1;exitY=0.75;exitDx=0;exitDy=0;exitPerimeter=0;labelBackgroundColor=none;fontFamily=Helvetica;fontSize=15;fontColor=default;endArrow=oval;endFill=0;entryX=0.002;entryY=0.459;entryDx=0;entryDy=0;entryPerimeter=0;strokeColor=#A8201A;" edge="1" parent="1" target="KA5vXZ2nPaFK-a-9JE_G-155" source="IGpdcPXpx3QODBAOmaDT-103">
          <mxGeometry relative="1" as="geometry">
            <mxPoint x="1950" y="540" as="targetPoint" />
          </mxGeometry>
        </mxCell>
        <mxCell id="KA5vXZ2nPaFK-a-9JE_G-153" style="edgeStyle=none;shape=connector;rounded=1;orthogonalLoop=1;jettySize=auto;html=1;labelBackgroundColor=none;fontFamily=Helvetica;fontSize=15;fontColor=default;endArrow=oval;endFill=0;entryX=-0.023;entryY=0.498;entryDx=0;entryDy=0;entryPerimeter=0;strokeColor=#A8201A;" edge="1" parent="1" target="KA5vXZ2nPaFK-a-9JE_G-158">
          <mxGeometry relative="1" as="geometry">
            <mxPoint x="1741" y="664" as="sourcePoint" />
            <mxPoint x="1906" y="510" as="targetPoint" />
          </mxGeometry>
        </mxCell>
        <mxCell id="KA5vXZ2nPaFK-a-9JE_G-154" value="Collocazione" style="text;html=1;align=center;verticalAlign=middle;resizable=0;points=[];autosize=1;strokeColor=none;fillColor=none;fontSize=15;fontFamily=Helvetica;labelBackgroundColor=none;rounded=1;fontColor=#143642;" vertex="1" parent="1">
          <mxGeometry x="1689.75" y="541" width="110" height="30" as="geometry" />
        </mxCell>
        <mxCell id="KA5vXZ2nPaFK-a-9JE_G-155" value="Coodinate_GPS" style="text;html=1;align=center;verticalAlign=middle;resizable=0;points=[];autosize=1;strokeColor=none;fillColor=none;fontSize=15;fontFamily=Helvetica;labelBackgroundColor=none;rounded=1;fontColor=#143642;" vertex="1" parent="1">
          <mxGeometry x="1848" y="708" width="130" height="30" as="geometry" />
        </mxCell>
        <mxCell id="KA5vXZ2nPaFK-a-9JE_G-156" value="Superficie_mq" style="text;html=1;align=center;verticalAlign=middle;resizable=0;points=[];autosize=1;strokeColor=none;fillColor=none;fontSize=15;fontFamily=Helvetica;labelBackgroundColor=none;rounded=1;fontColor=#143642;" vertex="1" parent="1">
          <mxGeometry x="1716" y="571" width="120" height="30" as="geometry" />
        </mxCell>
        <mxCell id="KA5vXZ2nPaFK-a-9JE_G-158" value="Condizione_Ambientale" style="text;html=1;align=center;verticalAlign=middle;resizable=0;points=[];autosize=1;strokeColor=none;fillColor=none;fontSize=15;fontFamily=Helvetica;labelBackgroundColor=none;rounded=1;fontColor=#143642;" vertex="1" parent="1">
          <mxGeometry x="1745" y="614" width="180" height="30" as="geometry" />
        </mxCell>
        <mxCell id="KA5vXZ2nPaFK-a-9JE_G-159" style="edgeStyle=none;rounded=1;orthogonalLoop=1;jettySize=auto;html=1;endArrow=oval;endFill=1;labelBackgroundColor=none;fontFamily=Helvetica;fontSize=15;fontColor=default;shape=connector;strokeColor=#A8201A;" edge="1" parent="1">
          <mxGeometry relative="1" as="geometry">
            <mxPoint x="1821" y="663.05" as="targetPoint" />
            <mxPoint x="1815" y="726" as="sourcePoint" />
          </mxGeometry>
        </mxCell>
        <mxCell id="KA5vXZ2nPaFK-a-9JE_G-160" style="edgeStyle=none;shape=connector;rounded=1;orthogonalLoop=1;jettySize=auto;html=1;exitX=0.663;exitY=-0.042;exitDx=0;exitDy=0;exitPerimeter=0;labelBackgroundColor=none;fontFamily=Helvetica;fontSize=15;fontColor=default;endArrow=oval;endFill=0;entryX=0.042;entryY=0.911;entryDx=0;entryDy=0;entryPerimeter=0;strokeColor=#A8201A;" edge="1" parent="1" target="KA5vXZ2nPaFK-a-9JE_G-156" source="IGpdcPXpx3QODBAOmaDT-103">
          <mxGeometry relative="1" as="geometry">
            <mxPoint x="1852" y="541" as="sourcePoint" />
            <mxPoint x="1906" y="530" as="targetPoint" />
          </mxGeometry>
        </mxCell>
        <mxCell id="KA5vXZ2nPaFK-a-9JE_G-161" value="Nome" style="text;html=1;align=center;verticalAlign=middle;resizable=0;points=[];autosize=1;strokeColor=none;fillColor=none;fontSize=15;fontFamily=Helvetica;labelBackgroundColor=none;rounded=1;fontColor=#143642;" vertex="1" parent="1">
          <mxGeometry x="1862" y="674" width="60" height="30" as="geometry" />
        </mxCell>
        <mxCell id="KA5vXZ2nPaFK-a-9JE_G-162" style="edgeStyle=none;shape=connector;rounded=1;orthogonalLoop=1;jettySize=auto;html=1;exitX=0.87;exitY=0.025;exitDx=0;exitDy=0;exitPerimeter=0;labelBackgroundColor=none;fontFamily=Helvetica;fontSize=15;fontColor=default;endArrow=oval;endFill=0;strokeColor=#A8201A;entryX=0.279;entryY=1.068;entryDx=0;entryDy=0;entryPerimeter=0;" edge="1" parent="1" source="IGpdcPXpx3QODBAOmaDT-8" target="KA5vXZ2nPaFK-a-9JE_G-68">
          <mxGeometry relative="1" as="geometry">
            <mxPoint x="1775" y="802" as="sourcePoint" />
            <mxPoint x="1752" y="866" as="targetPoint" />
          </mxGeometry>
        </mxCell>
        <mxCell id="KA5vXZ2nPaFK-a-9JE_G-163" style="edgeStyle=none;shape=connector;rounded=1;orthogonalLoop=1;jettySize=auto;html=1;exitX=1;exitY=0.5;exitDx=0;exitDy=0;exitPerimeter=0;labelBackgroundColor=none;fontFamily=Helvetica;fontSize=15;fontColor=default;endArrow=oval;endFill=0;entryX=-0.019;entryY=0.495;entryDx=0;entryDy=0;entryPerimeter=0;strokeColor=#A8201A;" edge="1" parent="1" source="IGpdcPXpx3QODBAOmaDT-8" target="KA5vXZ2nPaFK-a-9JE_G-63">
          <mxGeometry relative="1" as="geometry">
            <mxPoint x="1766" y="907" as="sourcePoint" />
            <mxPoint x="1772" y="872" as="targetPoint" />
          </mxGeometry>
        </mxCell>
        <mxCell id="KA5vXZ2nPaFK-a-9JE_G-164" style="edgeStyle=none;shape=connector;rounded=1;orthogonalLoop=1;jettySize=auto;html=1;exitX=1;exitY=0.75;exitDx=0;exitDy=0;exitPerimeter=0;labelBackgroundColor=none;fontFamily=Helvetica;fontSize=15;fontColor=default;endArrow=oval;endFill=0;entryX=0.016;entryY=0.51;entryDx=0;entryDy=0;entryPerimeter=0;strokeColor=#A8201A;" edge="1" parent="1" source="IGpdcPXpx3QODBAOmaDT-8" target="KA5vXZ2nPaFK-a-9JE_G-65">
          <mxGeometry relative="1" as="geometry">
            <mxPoint x="1790" y="926" as="sourcePoint" />
            <mxPoint x="1895" y="930" as="targetPoint" />
          </mxGeometry>
        </mxCell>
        <mxCell id="KA5vXZ2nPaFK-a-9JE_G-165" style="edgeStyle=none;shape=connector;rounded=1;orthogonalLoop=1;jettySize=auto;html=1;labelBackgroundColor=none;fontFamily=Helvetica;fontSize=15;fontColor=default;endArrow=oval;endFill=0;entryX=0.432;entryY=0.052;entryDx=0;entryDy=0;entryPerimeter=0;strokeColor=#A8201A;" edge="1" parent="1" target="KA5vXZ2nPaFK-a-9JE_G-67">
          <mxGeometry relative="1" as="geometry">
            <mxPoint x="1771" y="931" as="sourcePoint" />
            <mxPoint x="1836" y="957" as="targetPoint" />
          </mxGeometry>
        </mxCell>
        <mxCell id="KA5vXZ2nPaFK-a-9JE_G-167" style="edgeStyle=none;rounded=1;orthogonalLoop=1;jettySize=auto;html=1;endArrow=oval;endFill=1;labelBackgroundColor=none;fontFamily=Helvetica;fontSize=15;fontColor=default;shape=connector;strokeColor=#A8201A;entryX=0.001;entryY=0.552;entryDx=0;entryDy=0;entryPerimeter=0;exitX=0.816;exitY=1.015;exitDx=0;exitDy=0;exitPerimeter=0;" edge="1" parent="1" source="IGpdcPXpx3QODBAOmaDT-8" target="KA5vXZ2nPaFK-a-9JE_G-64">
          <mxGeometry relative="1" as="geometry">
            <mxPoint x="1838" y="768" as="targetPoint" />
            <mxPoint x="1764" y="898" as="sourcePoint" />
          </mxGeometry>
        </mxCell>
        <mxCell id="KA5vXZ2nPaFK-a-9JE_G-168" style="edgeStyle=none;shape=connector;rounded=1;orthogonalLoop=1;jettySize=auto;html=1;labelBackgroundColor=none;fontFamily=Helvetica;fontSize=15;fontColor=default;endArrow=oval;endFill=0;strokeColor=#A8201A;entryX=0.002;entryY=0.44;entryDx=0;entryDy=0;entryPerimeter=0;" edge="1" parent="1" target="KA5vXZ2nPaFK-a-9JE_G-169">
          <mxGeometry relative="1" as="geometry">
            <mxPoint x="1771" y="897" as="sourcePoint" />
            <mxPoint x="1833" y="883" as="targetPoint" />
          </mxGeometry>
        </mxCell>
        <mxCell id="KA5vXZ2nPaFK-a-9JE_G-169" value="Provincia" style="text;html=1;align=center;verticalAlign=middle;resizable=0;points=[];autosize=1;strokeColor=none;fillColor=none;fontSize=15;fontFamily=Helvetica;labelBackgroundColor=none;rounded=1;fontColor=#143642;" vertex="1" parent="1">
          <mxGeometry x="1770" y="850" width="80" height="30" as="geometry" />
        </mxCell>
        <mxCell id="KA5vXZ2nPaFK-a-9JE_G-170" style="edgeStyle=none;shape=connector;rounded=1;orthogonalLoop=1;jettySize=auto;html=1;labelBackgroundColor=none;fontFamily=Helvetica;fontSize=15;fontColor=default;endArrow=oval;endFill=0;strokeColor=#A8201A;entryX=-0.008;entryY=0.581;entryDx=0;entryDy=0;entryPerimeter=0;" edge="1" parent="1" target="KA5vXZ2nPaFK-a-9JE_G-171">
          <mxGeometry relative="1" as="geometry">
            <mxPoint x="1778" y="900" as="sourcePoint" />
            <mxPoint x="1820" y="884" as="targetPoint" />
          </mxGeometry>
        </mxCell>
        <mxCell id="KA5vXZ2nPaFK-a-9JE_G-171" value="Comune" style="text;html=1;align=center;verticalAlign=middle;resizable=0;points=[];autosize=1;strokeColor=none;fillColor=none;fontSize=15;fontFamily=Helvetica;labelBackgroundColor=none;rounded=1;fontColor=#143642;" vertex="1" parent="1">
          <mxGeometry x="1829" y="866" width="75" height="30" as="geometry" />
        </mxCell>
        <mxCell id="KA5vXZ2nPaFK-a-9JE_G-172" style="edgeStyle=none;shape=connector;rounded=1;orthogonalLoop=1;jettySize=auto;html=1;exitX=0.554;exitY=-0.004;exitDx=0;exitDy=0;exitPerimeter=0;labelBackgroundColor=none;fontFamily=Helvetica;fontSize=15;fontColor=default;endArrow=oval;endFill=0;entryX=0.153;entryY=0.971;entryDx=0;entryDy=0;entryPerimeter=0;strokeColor=#A8201A;" edge="1" parent="1" source="IGpdcPXpx3QODBAOmaDT-103" target="KA5vXZ2nPaFK-a-9JE_G-154">
          <mxGeometry relative="1" as="geometry">
            <mxPoint x="1729" y="672" as="sourcePoint" />
            <mxPoint x="1731" y="608" as="targetPoint" />
          </mxGeometry>
        </mxCell>
        <mxCell id="KA5vXZ2nPaFK-a-9JE_G-173" style="edgeStyle=none;rounded=1;orthogonalLoop=1;jettySize=auto;html=1;endArrow=oval;endFill=1;labelBackgroundColor=none;fontFamily=Helvetica;fontSize=15;fontColor=default;shape=connector;strokeColor=#A8201A;" edge="1" parent="1">
          <mxGeometry relative="1" as="geometry">
            <mxPoint x="1832" y="1214" as="targetPoint" />
            <mxPoint x="1803" y="964" as="sourcePoint" />
          </mxGeometry>
        </mxCell>
        <mxCell id="KA5vXZ2nPaFK-a-9JE_G-174" style="edgeStyle=none;shape=connector;rounded=1;orthogonalLoop=1;jettySize=auto;html=1;labelBackgroundColor=none;fontFamily=Helvetica;fontSize=15;fontColor=default;endArrow=oval;endFill=0;entryX=0.495;entryY=1.088;entryDx=0;entryDy=0;entryPerimeter=0;exitX=0.5;exitY=0;exitDx=0;exitDy=0;exitPerimeter=0;strokeColor=#A8201A;" edge="1" parent="1" source="IGpdcPXpx3QODBAOmaDT-12" target="KA5vXZ2nPaFK-a-9JE_G-178">
          <mxGeometry relative="1" as="geometry">
            <mxPoint x="890.5" y="746" as="sourcePoint" />
            <mxPoint x="890.0799999999999" y="761.97" as="targetPoint" />
          </mxGeometry>
        </mxCell>
        <mxCell id="KA5vXZ2nPaFK-a-9JE_G-175" style="edgeStyle=none;shape=connector;rounded=1;orthogonalLoop=1;jettySize=auto;html=1;exitX=0.95;exitY=0;exitDx=0;exitDy=0;exitPerimeter=0;labelBackgroundColor=none;fontFamily=Helvetica;fontSize=15;fontColor=default;endArrow=oval;endFill=0;strokeColor=#A8201A;" edge="1" parent="1" target="KA5vXZ2nPaFK-a-9JE_G-179" source="IGpdcPXpx3QODBAOmaDT-12">
          <mxGeometry relative="1" as="geometry">
            <mxPoint x="921.9000000000001" y="746.1199999999999" as="sourcePoint" />
            <mxPoint x="922.7" y="782.69" as="targetPoint" />
          </mxGeometry>
        </mxCell>
        <mxCell id="KA5vXZ2nPaFK-a-9JE_G-176" style="edgeStyle=none;shape=connector;rounded=1;orthogonalLoop=1;jettySize=auto;html=1;labelBackgroundColor=none;fontFamily=Helvetica;fontSize=15;fontColor=default;endArrow=oval;endFill=0;strokeColor=#A8201A;" edge="1" parent="1" target="KA5vXZ2nPaFK-a-9JE_G-181">
          <mxGeometry relative="1" as="geometry">
            <mxPoint x="820" y="895" as="sourcePoint" />
          </mxGeometry>
        </mxCell>
        <mxCell id="KA5vXZ2nPaFK-a-9JE_G-177" style="edgeStyle=none;shape=connector;rounded=1;orthogonalLoop=1;jettySize=auto;html=1;exitX=0;exitY=0;exitDx=0;exitDy=0;exitPerimeter=0;labelBackgroundColor=none;fontFamily=Helvetica;fontSize=15;fontColor=default;endArrow=oval;endFill=0;strokeColor=#A8201A;" edge="1" parent="1" target="KA5vXZ2nPaFK-a-9JE_G-180" source="IGpdcPXpx3QODBAOmaDT-12">
          <mxGeometry relative="1" as="geometry">
            <mxPoint x="831.5" y="746.56" as="sourcePoint" />
            <mxPoint x="828.1500000000001" y="789.56" as="targetPoint" />
          </mxGeometry>
        </mxCell>
        <mxCell id="KA5vXZ2nPaFK-a-9JE_G-178" value="Nome" style="text;html=1;align=center;verticalAlign=middle;resizable=0;points=[];autosize=1;strokeColor=none;fillColor=none;fontSize=15;fontFamily=Helvetica;labelBackgroundColor=none;rounded=1;fontColor=#143642;" vertex="1" parent="1">
          <mxGeometry x="831.75" y="836" width="60" height="30" as="geometry" />
        </mxCell>
        <mxCell id="KA5vXZ2nPaFK-a-9JE_G-179" value="Cognome" style="text;html=1;align=center;verticalAlign=middle;resizable=0;points=[];autosize=1;strokeColor=none;fillColor=none;fontSize=15;fontFamily=Helvetica;labelBackgroundColor=none;rounded=1;fontColor=#143642;" vertex="1" parent="1">
          <mxGeometry x="901" y="854" width="90" height="30" as="geometry" />
        </mxCell>
        <mxCell id="KA5vXZ2nPaFK-a-9JE_G-180" value="Ruolo" style="text;html=1;align=center;verticalAlign=middle;resizable=0;points=[];autosize=1;strokeColor=none;fillColor=none;fontSize=15;fontFamily=Helvetica;labelBackgroundColor=none;rounded=1;fontColor=#143642;" vertex="1" parent="1">
          <mxGeometry x="707" y="864" width="60" height="30" as="geometry" />
        </mxCell>
        <mxCell id="KA5vXZ2nPaFK-a-9JE_G-181" value="Telefono" style="text;html=1;align=center;verticalAlign=middle;resizable=0;points=[];autosize=1;strokeColor=none;fillColor=none;fontSize=15;fontFamily=Helvetica;labelBackgroundColor=none;rounded=1;fontColor=#143642;" vertex="1" parent="1">
          <mxGeometry x="762" y="824" width="80" height="30" as="geometry" />
        </mxCell>
        <mxCell id="KA5vXZ2nPaFK-a-9JE_G-182" value="0,1" style="text;html=1;align=center;verticalAlign=middle;resizable=0;points=[];autosize=1;strokeColor=none;fillColor=none;fontSize=15;fontFamily=Helvetica;rounded=1;labelBackgroundColor=none;fontColor=#143642;" vertex="1" parent="1">
          <mxGeometry x="808" y="862" width="40" height="30" as="geometry" />
        </mxCell>
        <mxCell id="KA5vXZ2nPaFK-a-9JE_G-183" value="1,N" style="text;html=1;align=center;verticalAlign=middle;resizable=0;points=[];autosize=1;strokeColor=none;fillColor=none;labelBackgroundColor=none;rounded=1;fontColor=#143642;" vertex="1" parent="1">
          <mxGeometry x="771" y="866" width="40" height="30" as="geometry" />
        </mxCell>
        <mxCell id="KA5vXZ2nPaFK-a-9JE_G-186" value="Email" style="text;html=1;align=center;verticalAlign=middle;resizable=0;points=[];autosize=1;strokeColor=none;fillColor=none;fontSize=15;fontFamily=Helvetica;labelBackgroundColor=none;rounded=1;fontColor=#143642;" vertex="1" parent="1">
          <mxGeometry x="887" y="824" width="56" height="30" as="geometry" />
        </mxCell>
        <mxCell id="KA5vXZ2nPaFK-a-9JE_G-187" style="edgeStyle=none;shape=connector;rounded=1;orthogonalLoop=1;jettySize=auto;html=1;labelBackgroundColor=none;fontFamily=Helvetica;fontSize=15;fontColor=default;endArrow=oval;endFill=1;strokeColor=#A8201A;entryX=0.368;entryY=1.01;entryDx=0;entryDy=0;entryPerimeter=0;" edge="1" parent="1" target="KA5vXZ2nPaFK-a-9JE_G-186">
          <mxGeometry relative="1" as="geometry">
            <mxPoint x="871" y="897" as="sourcePoint" />
            <mxPoint x="1077" y="714" as="targetPoint" />
          </mxGeometry>
        </mxCell>
        <mxCell id="KA5vXZ2nPaFK-a-9JE_G-188" value="0,1" style="text;html=1;align=center;verticalAlign=middle;resizable=0;points=[];autosize=1;strokeColor=none;fillColor=none;fontSize=15;fontFamily=Helvetica;rounded=1;labelBackgroundColor=none;fontColor=#143642;" vertex="1" parent="1">
          <mxGeometry x="1233" y="938" width="40" height="30" as="geometry" />
        </mxCell>
        <mxCell id="KA5vXZ2nPaFK-a-9JE_G-191" style="edgeStyle=orthogonalEdgeStyle;rounded=1;orthogonalLoop=1;jettySize=auto;html=1;exitX=1;exitY=1;exitDx=0;exitDy=0;exitPerimeter=0;endArrow=oval;endFill=0;labelBackgroundColor=none;fontColor=default;strokeColor=#A8201A;" edge="1" parent="1" target="KA5vXZ2nPaFK-a-9JE_G-196" source="2ZxViYWchOxOmelXp1Hh-18">
          <mxGeometry relative="1" as="geometry">
            <mxPoint x="1261" y="1096" as="sourcePoint" />
            <mxPoint x="1262.0500000000002" y="1067.5299999999997" as="targetPoint" />
            <Array as="points">
              <mxPoint x="1292" y="966" />
              <mxPoint x="1292" y="966" />
            </Array>
          </mxGeometry>
        </mxCell>
        <mxCell id="KA5vXZ2nPaFK-a-9JE_G-193" value="Finanziamento" style="text;html=1;align=center;verticalAlign=middle;resizable=0;points=[];autosize=1;strokeColor=none;fillColor=none;fontSize=14;labelBackgroundColor=none;rounded=1;fontColor=#143642;" vertex="1" parent="1">
          <mxGeometry x="1178" y="1006" width="110" height="29" as="geometry" />
        </mxCell>
        <mxCell id="KA5vXZ2nPaFK-a-9JE_G-194" value="ID" style="text;html=1;align=center;verticalAlign=middle;resizable=0;points=[];autosize=1;strokeColor=none;fillColor=none;fontSize=14;labelBackgroundColor=none;rounded=1;fontColor=#143642;" vertex="1" parent="1">
          <mxGeometry x="1151.5" y="962" width="40" height="30" as="geometry" />
        </mxCell>
        <mxCell id="KA5vXZ2nPaFK-a-9JE_G-196" value="Nome" style="text;html=1;align=center;verticalAlign=middle;resizable=0;points=[];autosize=1;strokeColor=none;fillColor=none;fontSize=14;labelBackgroundColor=none;rounded=1;fontColor=#143642;" vertex="1" parent="1">
          <mxGeometry x="1267" y="980" width="60" height="30" as="geometry" />
        </mxCell>
        <mxCell id="KA5vXZ2nPaFK-a-9JE_G-199" style="edgeStyle=none;shape=connector;rounded=1;orthogonalLoop=1;jettySize=auto;html=1;labelBackgroundColor=none;fontFamily=Helvetica;fontSize=15;fontColor=default;endArrow=oval;endFill=0;entryX=0.532;entryY=-0.107;entryDx=0;entryDy=0;entryPerimeter=0;strokeColor=#A8201A;exitX=0.579;exitY=1.025;exitDx=0;exitDy=0;exitPerimeter=0;" edge="1" parent="1" source="2ZxViYWchOxOmelXp1Hh-18" target="KA5vXZ2nPaFK-a-9JE_G-193">
          <mxGeometry relative="1" as="geometry">
            <mxPoint x="1237" y="953" as="sourcePoint" />
            <mxPoint x="1234" y="968" as="targetPoint" />
          </mxGeometry>
        </mxCell>
        <mxCell id="KA5vXZ2nPaFK-a-9JE_G-201" style="edgeStyle=none;shape=connector;rounded=1;orthogonalLoop=1;jettySize=auto;html=1;labelBackgroundColor=none;fontFamily=Helvetica;fontSize=15;fontColor=default;endArrow=oval;endFill=1;strokeColor=#A8201A;entryX=0.625;entryY=0.059;entryDx=0;entryDy=0;entryPerimeter=0;exitX=0.111;exitY=0.996;exitDx=0;exitDy=0;exitPerimeter=0;" edge="1" parent="1" source="2ZxViYWchOxOmelXp1Hh-18" target="KA5vXZ2nPaFK-a-9JE_G-194">
          <mxGeometry relative="1" as="geometry">
            <mxPoint x="900" y="984" as="sourcePoint" />
            <mxPoint x="937" y="941" as="targetPoint" />
          </mxGeometry>
        </mxCell>
        <mxCell id="KA5vXZ2nPaFK-a-9JE_G-202" value="0,1" style="text;html=1;align=center;verticalAlign=middle;resizable=0;points=[];autosize=1;strokeColor=none;fillColor=none;fontSize=15;fontFamily=Helvetica;rounded=1;labelBackgroundColor=none;fontColor=#143642;" vertex="1" parent="1">
          <mxGeometry x="815" y="940" width="40" height="30" as="geometry" />
        </mxCell>
        <mxCell id="KA5vXZ2nPaFK-a-9JE_G-203" value="0,N" style="text;html=1;align=center;verticalAlign=middle;resizable=0;points=[];autosize=1;strokeColor=none;fillColor=none;fontSize=15;fontFamily=Helvetica;rounded=1;labelBackgroundColor=none;fontColor=#143642;" vertex="1" parent="1">
          <mxGeometry x="911" y="891" width="41" height="30" as="geometry" />
        </mxCell>
        <mxCell id="KA5vXZ2nPaFK-a-9JE_G-204" value="0,N" style="text;html=1;align=center;verticalAlign=middle;resizable=0;points=[];autosize=1;strokeColor=none;fillColor=none;fontSize=15;fontFamily=Helvetica;rounded=1;labelBackgroundColor=none;fontColor=#143642;" vertex="1" parent="1">
          <mxGeometry x="761" y="915" width="41" height="30" as="geometry" />
        </mxCell>
        <mxCell id="KA5vXZ2nPaFK-a-9JE_G-205" value="1,N" style="text;html=1;align=center;verticalAlign=middle;resizable=0;points=[];autosize=1;strokeColor=none;fillColor=none;fontSize=15;fontFamily=Helvetica;rounded=1;labelBackgroundColor=none;fontColor=#143642;" vertex="1" parent="1">
          <mxGeometry x="1552" y="886" width="41" height="30" as="geometry" />
        </mxCell>
        <mxCell id="KA5vXZ2nPaFK-a-9JE_G-206" value="1,N" style="text;html=1;align=center;verticalAlign=middle;resizable=0;points=[];autosize=1;strokeColor=none;fillColor=none;fontSize=15;fontFamily=Helvetica;rounded=1;labelBackgroundColor=none;fontColor=#143642;" vertex="1" parent="1">
          <mxGeometry x="1601" y="949" width="41" height="30" as="geometry" />
        </mxCell>
        <mxCell id="KA5vXZ2nPaFK-a-9JE_G-207" value="1,N" style="text;html=1;align=center;verticalAlign=middle;resizable=0;points=[];autosize=1;strokeColor=none;fillColor=none;fontSize=15;fontFamily=Helvetica;rounded=1;labelBackgroundColor=none;fontColor=#143642;" vertex="1" parent="1">
          <mxGeometry x="1608" y="859" width="41" height="30" as="geometry" />
        </mxCell>
        <mxCell id="KA5vXZ2nPaFK-a-9JE_G-208" value="1,N" style="text;html=1;align=center;verticalAlign=middle;resizable=0;points=[];autosize=1;strokeColor=none;fillColor=none;fontSize=15;fontFamily=Helvetica;rounded=1;labelBackgroundColor=none;fontColor=#143642;" vertex="1" parent="1">
          <mxGeometry x="1702.5" y="859" width="41" height="30" as="geometry" />
        </mxCell>
        <mxCell id="KA5vXZ2nPaFK-a-9JE_G-209" value="1,N" style="text;html=1;align=center;verticalAlign=middle;resizable=0;points=[];autosize=1;strokeColor=none;fillColor=none;fontSize=15;fontFamily=Helvetica;rounded=1;labelBackgroundColor=none;fontColor=#143642;" vertex="1" parent="1">
          <mxGeometry x="1697.5" y="941" width="41" height="30" as="geometry" />
        </mxCell>
        <mxCell id="KA5vXZ2nPaFK-a-9JE_G-210" value="0,N" style="text;html=1;align=center;verticalAlign=middle;resizable=0;points=[];autosize=1;strokeColor=none;fillColor=none;fontSize=15;fontFamily=Helvetica;rounded=1;labelBackgroundColor=none;fontColor=#143642;" vertex="1" parent="1">
          <mxGeometry x="1608" y="704" width="41" height="30" as="geometry" />
        </mxCell>
        <mxCell id="KA5vXZ2nPaFK-a-9JE_G-211" value="1,1" style="text;html=1;align=center;verticalAlign=middle;resizable=0;points=[];autosize=1;strokeColor=none;fillColor=none;fontSize=15;fontFamily=Helvetica;rounded=1;labelBackgroundColor=none;fontColor=#143642;" vertex="1" parent="1">
          <mxGeometry x="1701.13" y="708" width="39" height="30" as="geometry" />
        </mxCell>
        <mxCell id="KA5vXZ2nPaFK-a-9JE_G-212" value="1,3" style="text;html=1;align=center;verticalAlign=middle;resizable=0;points=[];autosize=1;strokeColor=none;fillColor=none;fontSize=15;fontFamily=Helvetica;rounded=1;labelBackgroundColor=none;fontColor=#143642;" vertex="1" parent="1">
          <mxGeometry x="1563" y="658" width="39" height="30" as="geometry" />
        </mxCell>
        <mxCell id="KA5vXZ2nPaFK-a-9JE_G-213" value="1,N" style="text;html=1;align=center;verticalAlign=middle;resizable=0;points=[];autosize=1;strokeColor=none;fillColor=none;fontSize=15;fontFamily=Helvetica;rounded=1;labelBackgroundColor=none;fontColor=#143642;" vertex="1" parent="1">
          <mxGeometry x="1208" y="649" width="41" height="30" as="geometry" />
        </mxCell>
        <mxCell id="KA5vXZ2nPaFK-a-9JE_G-214" value="1,N" style="text;html=1;align=center;verticalAlign=middle;resizable=0;points=[];autosize=1;strokeColor=none;fillColor=none;fontSize=15;fontFamily=Helvetica;rounded=1;labelBackgroundColor=none;fontColor=#143642;" vertex="1" parent="1">
          <mxGeometry x="1014" y="657" width="41" height="30" as="geometry" />
        </mxCell>
        <mxCell id="KA5vXZ2nPaFK-a-9JE_G-215" value="1,1" style="text;html=1;align=center;verticalAlign=middle;resizable=0;points=[];autosize=1;strokeColor=none;fillColor=none;fontSize=15;fontFamily=Helvetica;rounded=1;labelBackgroundColor=none;fontColor=#143642;" vertex="1" parent="1">
          <mxGeometry x="1736" y="1181" width="39" height="30" as="geometry" />
        </mxCell>
        <mxCell id="KA5vXZ2nPaFK-a-9JE_G-216" value="1,1" style="text;html=1;align=center;verticalAlign=middle;resizable=0;points=[];autosize=1;strokeColor=none;fillColor=none;fontSize=15;fontFamily=Helvetica;rounded=1;labelBackgroundColor=none;fontColor=#143642;" vertex="1" parent="1">
          <mxGeometry x="1650.75" y="1238" width="39" height="30" as="geometry" />
        </mxCell>
        <mxCell id="KA5vXZ2nPaFK-a-9JE_G-217" value="1,N" style="text;html=1;align=center;verticalAlign=middle;resizable=0;points=[];autosize=1;strokeColor=none;fillColor=none;fontSize=15;fontFamily=Helvetica;rounded=1;labelBackgroundColor=none;fontColor=#143642;" vertex="1" parent="1">
          <mxGeometry x="1786" y="1238" width="41" height="30" as="geometry" />
        </mxCell>
        <mxCell id="KA5vXZ2nPaFK-a-9JE_G-218" value="1,1" style="text;html=1;align=center;verticalAlign=middle;resizable=0;points=[];autosize=1;strokeColor=none;fillColor=none;fontSize=15;fontFamily=Helvetica;rounded=1;labelBackgroundColor=none;fontColor=#143642;" vertex="1" parent="1">
          <mxGeometry x="924" y="545" width="39" height="30" as="geometry" />
        </mxCell>
        <mxCell id="KA5vXZ2nPaFK-a-9JE_G-220" value="1,1" style="text;html=1;align=center;verticalAlign=middle;resizable=0;points=[];autosize=1;strokeColor=none;fillColor=none;fontSize=15;fontFamily=Helvetica;rounded=1;labelBackgroundColor=none;fontColor=#143642;" vertex="1" parent="1">
          <mxGeometry x="927" y="480" width="39" height="30" as="geometry" />
        </mxCell>
        <mxCell id="KA5vXZ2nPaFK-a-9JE_G-221" value="1,20" style="text;html=1;align=center;verticalAlign=middle;resizable=0;points=[];autosize=1;strokeColor=none;fillColor=none;fontSize=15;fontFamily=Helvetica;rounded=1;labelBackgroundColor=none;fontColor=#143642;" vertex="1" parent="1">
          <mxGeometry x="915" y="336" width="47" height="30" as="geometry" />
        </mxCell>
        <mxCell id="KA5vXZ2nPaFK-a-9JE_G-222" value="1,1" style="text;html=1;align=center;verticalAlign=middle;resizable=0;points=[];autosize=1;strokeColor=none;fillColor=none;fontSize=15;fontFamily=Helvetica;rounded=1;labelBackgroundColor=none;fontColor=#143642;" vertex="1" parent="1">
          <mxGeometry x="988" y="457" width="39" height="30" as="geometry" />
        </mxCell>
        <mxCell id="KA5vXZ2nPaFK-a-9JE_G-223" value="1,1" style="text;html=1;align=center;verticalAlign=middle;resizable=0;points=[];autosize=1;strokeColor=none;fillColor=none;fontSize=15;fontFamily=Helvetica;rounded=1;labelBackgroundColor=none;fontColor=#143642;" vertex="1" parent="1">
          <mxGeometry x="1034" y="500" width="39" height="30" as="geometry" />
        </mxCell>
        <mxCell id="KA5vXZ2nPaFK-a-9JE_G-224" value="1,N" style="text;html=1;align=center;verticalAlign=middle;resizable=0;points=[];autosize=1;strokeColor=none;fillColor=none;fontSize=15;fontFamily=Helvetica;rounded=1;labelBackgroundColor=none;fontColor=#143642;" vertex="1" parent="1">
          <mxGeometry x="1656" y="641" width="41" height="30" as="geometry" />
        </mxCell>
        <mxCell id="KA5vXZ2nPaFK-a-9JE_G-225" value="1,N" style="text;html=1;align=center;verticalAlign=middle;resizable=0;points=[];autosize=1;strokeColor=none;fillColor=none;fontSize=15;fontFamily=Helvetica;rounded=1;labelBackgroundColor=none;fontColor=#143642;" vertex="1" parent="1">
          <mxGeometry x="838" y="524" width="41" height="30" as="geometry" />
        </mxCell>
        <mxCell id="KA5vXZ2nPaFK-a-9JE_G-226" value="1,N" style="text;html=1;align=center;verticalAlign=middle;resizable=0;points=[];autosize=1;strokeColor=none;fillColor=none;fontSize=15;fontFamily=Helvetica;rounded=1;labelBackgroundColor=none;fontColor=#143642;" vertex="1" parent="1">
          <mxGeometry x="480" y="522" width="41" height="30" as="geometry" />
        </mxCell>
        <mxCell id="KA5vXZ2nPaFK-a-9JE_G-229" value="1,N" style="text;html=1;align=center;verticalAlign=middle;resizable=0;points=[];autosize=1;strokeColor=none;fillColor=none;fontSize=15;fontFamily=Helvetica;rounded=1;labelBackgroundColor=none;fontColor=#143642;" vertex="1" parent="1">
          <mxGeometry x="482" y="655" width="41" height="30" as="geometry" />
        </mxCell>
        <mxCell id="KA5vXZ2nPaFK-a-9JE_G-230" value="1,N" style="text;html=1;align=center;verticalAlign=middle;resizable=0;points=[];autosize=1;strokeColor=none;fillColor=none;fontSize=15;fontFamily=Helvetica;rounded=1;labelBackgroundColor=none;fontColor=#143642;" vertex="1" parent="1">
          <mxGeometry x="541" y="680" width="41" height="30" as="geometry" />
        </mxCell>
        <mxCell id="KA5vXZ2nPaFK-a-9JE_G-231" value="1,1" style="text;html=1;align=center;verticalAlign=middle;resizable=0;points=[];autosize=1;strokeColor=none;fillColor=none;fontSize=15;fontFamily=Helvetica;rounded=1;labelBackgroundColor=none;fontColor=#143642;" vertex="1" parent="1">
          <mxGeometry x="479" y="725" width="39" height="30" as="geometry" />
        </mxCell>
        <mxCell id="KA5vXZ2nPaFK-a-9JE_G-232" value="0,1" style="text;html=1;align=center;verticalAlign=middle;resizable=0;points=[];autosize=1;strokeColor=none;fillColor=none;fontSize=15;fontFamily=Helvetica;rounded=1;labelBackgroundColor=none;fontColor=#143642;" vertex="1" parent="1">
          <mxGeometry x="877" y="938" width="39" height="30" as="geometry" />
        </mxCell>
        <mxCell id="KA5vXZ2nPaFK-a-9JE_G-233" value="1,N" style="text;html=1;align=center;verticalAlign=middle;resizable=0;points=[];autosize=1;strokeColor=none;fillColor=none;fontSize=15;fontFamily=Helvetica;rounded=1;labelBackgroundColor=none;fontColor=#143642;" vertex="1" parent="1">
          <mxGeometry x="1120" y="892" width="41" height="30" as="geometry" />
        </mxCell>
        <mxCell id="KA5vXZ2nPaFK-a-9JE_G-234" value="1,N" style="text;html=1;align=center;verticalAlign=middle;resizable=0;points=[];autosize=1;strokeColor=none;fillColor=none;fontSize=15;fontFamily=Helvetica;rounded=1;labelBackgroundColor=none;fontColor=#143642;" vertex="1" parent="1">
          <mxGeometry x="1293" y="891" width="41" height="30" as="geometry" />
        </mxCell>
      </root>
    </mxGraphModel>
  </diagram>
</mxfile>
